<?xml version="1.0" encoding="UTF-8" standalone="no"?>
<!-- Created with Inkscape (http://www.inkscape.org/) -->
<svg
   xmlns:dc="http://purl.org/dc/elements/1.1/"
   xmlns:cc="http://creativecommons.org/ns#"
   xmlns:rdf="http://www.w3.org/1999/02/22-rdf-syntax-ns#"
   xmlns:svg="http://www.w3.org/2000/svg"
   xmlns="http://www.w3.org/2000/svg"
   xmlns:sodipodi="http://sodipodi.sourceforge.net/DTD/sodipodi-0.dtd"
   xmlns:inkscape="http://www.inkscape.org/namespaces/inkscape"
   version="1.0"
   width="64"
   height="64"
   id="svg2"
   sodipodi:version="0.32"
   inkscape:version="0.46"
   sodipodi:docname="case-a-3d.svg"
   inkscape:output_extension="org.inkscape.output.svg.inkscape">
  <metadata
     id="metadata18">
    <rdf:RDF>
      <cc:Work
         rdf:about="">
        <dc:format>image/svg+xml</dc:format>
        <dc:type
           rdf:resource="http://purl.org/dc/dcmitype/StillImage" />
      </cc:Work>
    </rdf:RDF>
  </metadata>
  <sodipodi:namedview
     inkscape:window-height="974"
     inkscape:window-width="1280"
     inkscape:pageshadow="2"
     inkscape:pageopacity="0.0"
     guidetolerance="10.0"
     gridtolerance="10.0"
     objecttolerance="10.0"
     borderopacity="1.0"
     bordercolor="#666666"
     pagecolor="#ffffff"
     id="base"
     showgrid="false"
     inkscape:zoom="18.53898"
     inkscape:cx="14.198491"
     inkscape:cy="43.901018"
     inkscape:window-x="-8"
     inkscape:window-y="-8"
     inkscape:current-layer="svg2" />
  <defs
     id="defs4">
    <inkscape:perspective
       sodipodi:type="inkscape:persp3d"
       inkscape:vp_x="0 : 8.8107147 : 1"
       inkscape:vp_y="6.1230318e-14 : 1000 : 0"
       inkscape:vp_z="17.88929 : 8.8107147 : 1"
       inkscape:persp3d-origin="8.9446449 : 5.8738098 : 1"
       id="perspective20" />
  </defs>
  <path
     style="fill:none;fill-rule:evenodd;stroke:#000000;stroke-width:1;stroke-linecap:butt;stroke-linejoin:round;stroke-miterlimit:4;stroke-dasharray:none;stroke-opacity:1"
     id="path2413"
     d="M 52.777661,14.90969 L 26.765482,13.318727 L 0.75330306,11.727763 L 7.9126207,6.238952 L 15.071938,0.75014064 L 39.25449,2.2615613 L 63.437077,3.7729819 L 63.357499,25.80777 L 63.277956,47.842523 L 52.777661,62.47933 L 26.765482,60.331566 L 0.75330306,58.183768 L 0.75330306,34.955765 L 0.75330306,11.727763 M 63.437077,3.6138962 L 58.186894,9.3413361 L 52.936747,15.068776 C 52.936747,15.068776 52.936747,31.606806 52.936747,38.694528 C 52.936747,45.78225 52.936747,62.320244 52.936747,62.320244 M 0.7533387,34.95573 L 52.777626,38.774071 M 39.25449,2.1820184 L 27.004146,13.318727 M 26.845025,13.318727 L 26.845025,60.251988 M 58.186894,9.3413361 L 58.346016,54.683634 M 52.936747,38.774035 L 63.437077,26.046399 M 58.186894,9.3413005 L 7.9126207,6.1594092" />
  <path
     style="fill:none;stroke:#ffffff;stroke-width:0.35134909;stroke-miterlimit:4;stroke-dasharray:none;stroke-opacity:1"
     d="M 25.071654,59.616823 C 24.90383,59.590116 19.497256,59.139639 13.057043,58.615767 L 1.3475645,57.663267 L 1.3475645,46.632358 C 1.3475645,37.910173 1.387479,35.601109 1.5382727,35.599864 C 1.9615013,35.596368 24.965728,37.287161 25.567495,37.365992 L 26.215902,37.450935 L 26.215902,48.57894 L 26.215902,59.706944 L 25.796344,59.686169 C 25.565588,59.67474 25.239477,59.643538 25.071654,59.616828 L 25.071654,59.616823 z"
     id="path3213" />
  <path
     style="fill:none;stroke:#ffffff;stroke-width:0.35134909;stroke-miterlimit:4;stroke-dasharray:none;stroke-opacity:1"
     d="M 39.79432,60.841546 C 33.542908,60.311271 28.204988,59.873385 27.932275,59.868462 L 27.436434,59.859511 L 27.436434,48.664618 L 27.436434,37.469718 L 28.084842,37.532778 C 29.162405,37.637561 51.592015,39.262897 51.961497,39.262969 L 52.304772,39.263035 L 52.304772,50.552955 L 52.304772,61.842875 L 51.732648,61.82427 C 51.417979,61.814041 46.045732,61.371812 39.79432,60.841541 L 39.79432,60.841546 z"
     id="path3215" />
  <path
     style="fill:#000000;fill-opacity:0.47058824;stroke:none;stroke-width:0.35134909;stroke-miterlimit:4;stroke-dasharray:none;stroke-opacity:1"
     d="M 53.418507,49.794359 L 53.418507,38.548955 L 55.541089,35.97788 L 57.66367,33.406803 L 57.763372,36.338045 C 57.818199,37.950226 57.872264,42.778045 57.883513,47.066531 L 57.903963,54.863776 L 55.801629,57.799583 C 54.645355,59.414277 53.636127,60.803873 53.558907,60.887575 C 53.478396,60.974847 53.418507,56.243286 53.418507,49.794359 z"
     id="path3217" />
  <path
     style="fill:#000000;fill-opacity:0.47058824;stroke:none;stroke-width:0.35134909;stroke-miterlimit:4;stroke-dasharray:none;stroke-opacity:0.47058824"
     d="M 58.770768,42.770489 L 58.774463,32.077485 L 60.624253,29.834758 C 61.641634,28.601258 62.577514,27.48607 62.703984,27.356564 C 62.903809,27.15194 62.920071,28.494749 62.828122,37.609031 L 62.722313,48.096967 L 60.808863,50.780229 C 59.75646,52.256024 58.866531,53.463493 58.831239,53.463493 C 58.795944,53.463493 58.768737,48.651641 58.77077,42.770489 L 58.770768,42.770489 z"
     id="path3219" />
  <path
     style="fill:#000000;fill-opacity:0.31372549;stroke:none;stroke-width:2.30292439;stroke-miterlimit:4;stroke-dasharray:none;stroke-opacity:0.47058824"
     d="M 14.022672,59.398475 C 7.1943679,58.833342 1.3671837,58.333369 1.0733737,58.287425 L 0.53917041,58.203896 L 0.59278918,46.687607 C 0.62724073,39.287532 0.7036632,35.117605 0.80659963,35.021049 C 0.90677425,34.927087 5.6783866,35.221851 13.542088,35.807786 C 20.458499,36.323142 26.315621,36.747625 26.557916,36.751092 L 26.998452,36.757395 L 26.998452,48.611811 C 26.998452,59.802599 26.982758,60.465102 26.71811,60.446113 C 26.563923,60.435047 20.850976,59.963613 14.022672,59.398478 L 14.022672,59.398475 z"
     id="path3221" />
  <path
     style="fill:#000000;fill-opacity:0.31372549;stroke:none;stroke-width:2.30292439;stroke-miterlimit:4;stroke-dasharray:none;stroke-opacity:0.47058824"
     d="M 40.27109,61.562353 C 33.707107,61.006943 27.958117,60.547367 27.495554,60.541067 L 26.654531,60.529612 L 26.654531,48.585644 C 26.654531,42.016462 26.708597,36.672786 26.774677,36.710807 C 26.840757,36.748825 32.78799,37.203346 39.990749,37.720845 L 53.086675,38.661749 L 53.086675,50.636947 L 53.086675,62.612144 L 52.64614,62.592159 C 52.403845,62.581168 46.835072,62.117753 40.27109,61.562348 L 40.27109,61.562353 z"
     id="path3223" />
  <path
     style="fill:#000000;fill-opacity:0.19607843;stroke:none;stroke-width:2.30292439;stroke-miterlimit:4;stroke-dasharray:none;stroke-opacity:0.47058824"
     d="M 21.373939,6.5718434 C 14.898064,6.1536788 9.4571056,5.7835856 9.2829231,5.7494144 C 9.0469033,5.7031085 9.7188055,5.1089091 11.920485,3.4168739 C 14.279979,1.6035518 14.956512,1.1593989 15.280884,1.2107125 C 15.50426,1.2460482 20.73316,1.5772831 26.90066,1.9467852 C 33.068161,2.316289 38.165832,2.6620119 38.228819,2.7150604 C 38.335933,2.8052741 33.515313,7.2687036 33.26382,7.3121677 C 33.200262,7.3231539 27.849814,6.9900063 21.373939,6.5718434 z"
     id="path3225" />
  <path
     style="fill:#000000;fill-opacity:1;stroke:none;stroke-width:1.5;stroke-miterlimit:4;stroke-dasharray:none;stroke-opacity:1"
     d="M 38.048369,14.446059 C 38.048369,21.528254 42.782999,27.790974 49.798369,28.852309 L 47.610869,30.883559 L 48.610869,31.977309 L 52.017119,28.852309 L 52.454619,28.446059 L 52.173369,27.946059 L 50.235869,24.321059 L 48.923369,25.039809 L 50.204619,27.414809 C 43.830621,26.55254 39.548369,20.930278 39.548369,14.446059 L 38.048369,14.446059 z"
     id="path3407" />
  <path
     id="path3425"
     d="M 55.131634,11.822718 C 47.814039,11.222097 40.814546,11.604579 38.934683,12.868271 L 37.080148,12.273904 L 35.838396,12.374106 L 38.68696,13.296405 L 39.057868,13.415279 L 39.605886,13.403413 L 43.56769,13.336973 L 42.971591,13.022756 L 40.3746,13.06857 C 41.977179,11.911759 48.264418,11.56225 54.96416,12.11216 L 55.131634,11.822718 z"
     style="fill:#000000;fill-opacity:1;stroke:#000000;stroke-width:0.20103724;stroke-miterlimit:4;stroke-dasharray:none;stroke-opacity:1" />
  <path
     id="path3427"
     d="M 53.333,28.752867 C 55.085326,26.301927 56.357624,20.34947 56.209394,14.373715 L 56.840084,15.419564 L 57.052145,14.241595 L 56.079459,12.599928 L 55.953322,12.39076 L 55.846079,12.788641 L 55.06262,15.592086 L 55.31732,16.39263 L 55.829927,14.546413 C 55.989851,19.940532 54.849528,25.30969 53.245158,27.553687 L 53.333,28.752867 z"
     style="fill:#000000;fill-opacity:1;stroke:#000000;stroke-width:0.1;stroke-miterlimit:4;stroke-dasharray:none;stroke-opacity:1" />
  <path
     id="path3429"
     d="M 1.1549077,27.394147 C 8.2371027,27.394147 14.499824,22.659517 15.561159,15.644147 L 17.592409,17.831647 L 18.686159,16.831647 L 15.561159,13.425397 L 15.154909,12.987897 L 14.654909,13.269147 L 11.029909,15.206647 L 11.748659,16.519147 L 14.123659,15.237897 C 13.26139,21.611895 7.6391267,25.894147 1.1549077,25.894147 L 1.1549077,27.394147 z"
     style="fill:#000000;fill-opacity:1;stroke:none;stroke-width:1.5;stroke-miterlimit:4;stroke-dasharray:none;stroke-opacity:1" />
  <path
     style="fill:#000000;fill-opacity:1;stroke:#000000;stroke-width:0.2;stroke-miterlimit:4;stroke-dasharray:none;stroke-opacity:1"
     d="M 16.28134,12.331339 C 19.854567,10.459047 17.222979,8.7865375 9.1773206,8.4809755 L 12.877892,7.9517715 L 12.206537,7.6590605 L 6.4633644,8.4730755 L 5.7232502,8.5789165 L 5.8150049,8.7121005 L 6.3559929,9.6773275 L 8.3240671,9.4919875 L 7.9551276,8.8595555 C 15.316702,9.1102065 17.718079,10.61179 14.446552,12.325998 L 16.28134,12.331339 z"
     id="path3431" />
  <path
     id="path3433"
     d="M 48.956829,2.7949327 C 46.08152,4.7781274 49.218393,6.5318482 57.202871,6.829049 L 53.754159,7.3978507 L 54.509668,7.7041285 L 59.864399,6.829049 L 60.554141,6.7152887 L 60.41976,6.5752759 L 59.567327,5.5601837 L 57.701095,5.761452 L 58.273805,6.4265124 C 50.977874,6.1850551 48.123636,4.610679 50.756172,2.7949327 L 48.956829,2.7949327 z"
     style="fill:#000000;fill-opacity:1;stroke:none;stroke-width:1.5;stroke-miterlimit:4;stroke-dasharray:none;stroke-opacity:1" />
  <path
     id="path3435"
     d="M 60.325754,7.7071288 C 60.325754,15.092333 61.142591,19.036644 62.352909,16.311146 L 61.975513,19.624253 L 62.148038,20.218535 L 62.735697,15.099124 L 62.811176,14.436503 L 62.762654,14.068747 L 62.428389,11.347039 L 62.201951,12.813513 L 62.422998,14.590224 C 61.32333,17.172945 60.58454,13.649375 60.58454,6.8877327 L 60.325754,7.7071288 z"
     style="fill:#000000;fill-opacity:1;stroke:none;stroke-width:1.5;stroke-miterlimit:4;stroke-dasharray:none;stroke-opacity:1" />
</svg>
