<?xml version="1.0" encoding="UTF-8" standalone="no"?>
<!-- Created with Inkscape (http://www.inkscape.org/) -->
<svg
   xmlns:svg="http://www.w3.org/2000/svg"
   xmlns="http://www.w3.org/2000/svg"
   version="1.0"
   width="290"
   height="64"
   id="svg2">
  <defs
     id="defs4" />
  <g
     transform="translate(-9.821485e-2,8.9285702e-3)"
     id="layer1">
    <path
       d="M 4.371395,4.2642522 L 32.053571,4.2642522 L 59.735748,4.2642522 L 59.735748,31.946428 L 59.735748,59.628605 L 32.053571,59.628605 L 4.371395,59.628605 L 4.371395,31.946428 L 4.371395,4.2642522 z M 4.371395,63.401785 L 32.053571,63.401785 L 59.735748,63.401785 L 59.735748,61.501491 L 59.735748,59.601196 L 32.053571,59.601196 L 4.371395,59.601196 L 4.371395,61.501491 L 4.371395,63.401785 z M 4.371395,4.2916599 L 32.053571,4.2916599 L 59.735748,4.2916599 L 59.735748,2.3913661 L 59.735748,0.4910714 L 32.053571,0.4910714 L 4.371395,0.4910714 L 4.371395,2.3913661 L 4.371395,4.2916599 z M 0.59821482,4.2642518 L 0.59821482,31.946428 L 0.59821482,59.628605 L 2.4985085,59.628605 L 4.3988032,59.628605 L 4.3988032,31.946428 L 4.3988032,4.2642518 L 2.4985085,4.2642518 L 0.59821482,4.2642518 z M 59.708339,4.2642517 L 59.708339,31.946428 L 59.708339,59.628605 L 61.608633,59.628605 L 63.508928,59.628605 L 63.508928,31.946428 L 63.508928,4.2642517 L 61.608633,4.2642517 L 59.708339,4.2642517 z M 0.62562218,31.946428 L 63.481521,31.946429 M 32.144932,0.51847887 L 32.053571,63.374378"
       id="rect2383"
       style="fill:none;fill-opacity:1;fill-rule:nonzero;stroke:#000000;stroke-width:0.99999994;stroke-linejoin:miter;stroke-miterlimit:4;stroke-opacity:1" />
    <path
       d="M 79.966632,4.2642522 L 107.64881,4.2642522 L 135.33099,4.2642522 L 135.33099,31.946428 L 135.33099,59.628605 L 107.64881,59.628605 L 79.966632,59.628605 L 79.966632,31.946428 L 79.966632,4.2642522 z M 79.966632,63.401785 L 107.64881,63.401785 L 135.33099,63.401785 L 135.33099,61.501491 L 135.33099,59.601196 L 107.64881,59.601196 L 79.966632,59.601196 L 79.966632,61.501491 L 79.966632,63.401785 z M 79.966632,4.2916599 L 107.64881,4.2916599 L 135.33099,4.2916599 L 135.33099,2.3913661 L 135.33099,0.4910714 L 107.64881,0.4910714 L 79.966632,0.4910714 L 79.966632,2.3913661 L 79.966632,4.2916599 z M 76.193452,4.2642518 L 76.193452,31.946428 L 76.193452,59.628605 L 78.093745,59.628605 L 79.99404,59.628605 L 79.99404,31.946428 L 79.99404,4.2642518 L 78.093745,4.2642518 L 76.193452,4.2642518 z M 135.30358,4.2642517 L 135.30358,31.946428 L 135.30358,59.628605 L 137.20387,59.628605 L 139.10417,59.628605 L 139.10417,31.946428 L 139.10417,4.2642517 L 137.20387,4.2642517 L 135.30358,4.2642517 z M 76.220859,31.946428 L 139.07676,31.946429 M 107.74017,0.51847887 L 107.64881,63.374378"
       id="path3172"
       style="fill:none;fill-opacity:1;fill-rule:nonzero;stroke:#000000;stroke-width:0.99999994;stroke-linejoin:miter;stroke-miterlimit:4;stroke-opacity:1" />
    <path
       d="M 155.56187,4.2642522 L 183.24405,4.2642522 L 210.92623,4.2642522 L 210.92623,31.946428 L 210.92623,59.628605 L 183.24405,59.628605 L 155.56187,59.628605 L 155.56187,31.946428 L 155.56187,4.2642522 z M 155.56187,63.401785 L 183.24405,63.401785 L 210.92623,63.401785 L 210.92623,61.501491 L 210.92623,59.601196 L 183.24405,59.601196 L 155.56187,59.601196 L 155.56187,61.501491 L 155.56187,63.401785 z M 155.56187,4.2916599 L 183.24405,4.2916599 L 210.92623,4.2916599 L 210.92623,2.3913661 L 210.92623,0.4910714 L 183.24405,0.4910714 L 155.56187,0.4910714 L 155.56187,2.3913661 L 155.56187,4.2916599 z M 151.78869,4.2642518 L 151.78869,31.946428 L 151.78869,59.628605 L 153.68898,59.628605 L 155.58928,59.628605 L 155.58928,31.946428 L 155.58928,4.2642518 L 153.68898,4.2642518 L 151.78869,4.2642518 z M 210.89882,4.2642517 L 210.89882,31.946428 L 210.89882,59.628605 L 212.79911,59.628605 L 214.69941,59.628605 L 214.69941,31.946428 L 214.69941,4.2642517 L 212.79911,4.2642517 L 210.89882,4.2642517 z M 151.8161,31.946428 L 214.672,31.946429 M 183.33541,0.51847887 L 183.24405,63.374378"
       id="path3174"
       style="fill:none;fill-opacity:1;fill-rule:nonzero;stroke:#000000;stroke-width:0.99999994;stroke-linejoin:miter;stroke-miterlimit:4;stroke-opacity:1" />
    <path
       d="M 231.1571,4.2642522 L 258.83928,4.2642522 L 286.52146,4.2642522 L 286.52146,31.946428 L 286.52146,59.628605 L 258.83928,59.628605 L 231.1571,59.628605 L 231.1571,31.946428 L 231.1571,4.2642522 z M 231.1571,63.401785 L 258.83928,63.401785 L 286.52146,63.401785 L 286.52146,61.501491 L 286.52146,59.601196 L 258.83928,59.601196 L 231.1571,59.601196 L 231.1571,61.501491 L 231.1571,63.401785 z M 231.1571,4.2916599 L 258.83928,4.2916599 L 286.52146,4.2916599 L 286.52146,2.3913661 L 286.52146,0.4910714 L 258.83928,0.4910714 L 231.1571,0.4910714 L 231.1571,2.3913661 L 231.1571,4.2916599 z M 227.38392,4.2642518 L 227.38392,31.946428 L 227.38392,59.628605 L 229.28421,59.628605 L 231.18451,59.628605 L 231.18451,31.946428 L 231.18451,4.2642518 L 229.28421,4.2642518 L 227.38392,4.2642518 z M 286.49405,4.2642517 L 286.49405,31.946428 L 286.49405,59.628605 L 288.39434,59.628605 L 290.29464,59.628605 L 290.29464,31.946428 L 290.29464,4.2642517 L 288.39434,4.2642517 L 286.49405,4.2642517 z M 227.41133,31.946428 L 290.26723,31.946429 M 258.93064,0.51847887 L 258.83928,63.374378"
       id="path3176"
       style="fill:none;fill-opacity:1;fill-rule:nonzero;stroke:#000000;stroke-width:0.99999994;stroke-linejoin:miter;stroke-miterlimit:4;stroke-opacity:1" />
    <path
       d="M 4.4444257,18.239077 L 4.4444257,4.3640777 L 18.319426,4.3640777 L 32.194426,4.3640777 L 32.194426,18.239077 L 32.194426,32.114078 L 18.319426,32.114078 L 4.4444257,32.114078 L 4.4444257,18.239077 z"
       id="path3178"
       style="fill:#000000;fill-opacity:0.31372549;fill-rule:nonzero;stroke:none;stroke-width:1;stroke-linejoin:miter;stroke-miterlimit:4;stroke-dasharray:none;stroke-opacity:1" />
    <path
       d="M 107.65871,18.239077 L 107.65871,4.3640777 L 121.53372,4.3640777 L 135.40871,4.3640777 L 135.40871,18.239077 L 135.40871,32.114078 L 121.53372,32.114078 L 107.65871,32.114078 L 107.65871,18.239077 z"
       id="path3180"
       style="fill:#000000;fill-opacity:0.31372549;fill-rule:nonzero;stroke:none;stroke-width:1;stroke-linejoin:miter;stroke-miterlimit:4;stroke-dasharray:none;stroke-opacity:1" />
    <path
       d="M 107.65871,45.739077 L 107.65871,31.864078 L 121.53372,31.864078 L 135.40871,31.864078 L 135.40871,45.739077 L 135.40871,59.614078 L 121.53372,59.614078 L 107.65871,59.614078 L 107.65871,45.739077 z"
       id="path3182"
       style="fill:#000000;fill-opacity:0.31372549;fill-rule:nonzero;stroke:none;stroke-width:1;stroke-linejoin:miter;stroke-miterlimit:4;stroke-dasharray:none;stroke-opacity:1" />
    <path
       d="M 155.51585,45.739077 L 155.51585,31.864078 L 169.39085,31.864078 L 183.26586,31.864078 L 183.26586,45.739077 L 183.26586,59.614078 L 169.39085,59.614078 L 155.51585,59.614078 L 155.51585,45.739077 z"
       id="path3184"
       style="fill:#000000;fill-opacity:0.31372549;fill-rule:nonzero;stroke:none;stroke-width:1;stroke-linejoin:miter;stroke-miterlimit:4;stroke-dasharray:none;stroke-opacity:1" />
    <path
       d="M 183.38193,45.739077 L 183.38193,31.864078 L 197.06942,31.864078 L 210.75693,31.864078 L 210.75693,45.739077 L 210.75693,59.614078 L 197.06942,59.614078 L 183.38193,59.614078 L 183.38193,45.739077 z"
       id="path3186"
       style="fill:#000000;fill-opacity:0.31372549;fill-rule:nonzero;stroke:none;stroke-width:1;stroke-linejoin:miter;stroke-miterlimit:4;stroke-dasharray:none;stroke-opacity:1" />
    <path
       d="M 231.23014,45.739077 L 231.23014,31.864078 L 245.10515,31.864078 L 258.98014,31.864078 L 258.98014,45.739077 L 258.98014,59.614078 L 245.10515,59.614078 L 231.23014,59.614078 L 231.23014,45.739077 z"
       id="path3188"
       style="fill:#000000;fill-opacity:0.31372549;fill-rule:nonzero;stroke:none;stroke-width:1;stroke-linejoin:miter;stroke-miterlimit:4;stroke-dasharray:none;stroke-opacity:1" />
    <path
       d="M 258.85974,23.395328 C 258.99535,18.600015 259.10665,12.356266 259.10713,9.5203278 L 259.10799,4.3640777 L 272.7955,4.3640777 L 286.48299,4.3640777 L 286.48299,18.239077 L 286.48299,32.114078 L 272.54811,32.114078 L 258.61318,32.114078 L 258.85974,23.395328 z"
       id="path3190"
       style="fill:#000000;fill-opacity:0.31372549;fill-rule:nonzero;stroke:none;stroke-width:1;stroke-linejoin:miter;stroke-miterlimit:4;stroke-dasharray:none;stroke-opacity:1" />
    <path
       d="M 231.23014,2.3462206 L 231.23014,1.0337206 L 245.10515,1.0337206 L 258.98014,1.0337206 L 258.98014,2.3462206 L 258.98014,3.6587206 L 245.10515,3.6587206 L 231.23014,3.6587206 L 231.23014,2.3462206 z"
       id="path3192"
       style="fill:#000000;fill-opacity:0.47058824;fill-rule:nonzero;stroke:none;stroke-width:1;stroke-linejoin:miter;stroke-miterlimit:4;stroke-dasharray:none;stroke-opacity:1" />
    <path
       d="M 287.27079,45.739077 L 287.27079,31.864078 L 288.39579,31.864078 L 289.5208,31.864078 L 289.5208,45.739077 L 289.5208,59.614078 L 288.39579,59.614078 L 287.27079,59.614078 L 287.27079,45.739077 z"
       id="path3194"
       style="fill:#000000;fill-opacity:0.47058824;fill-rule:nonzero;stroke:none;stroke-width:1;stroke-linejoin:miter;stroke-miterlimit:4;stroke-dasharray:none;stroke-opacity:1" />
    <path
       d="M 155.59222,2.3462206 L 155.59222,1.0337206 L 169.46723,1.0337206 L 183.34222,1.0337206 L 183.34222,2.3462206 L 183.34222,3.6587206 L 169.46723,3.6587206 L 155.59222,3.6587206 L 155.59222,2.3462206 z"
       id="path3198"
       style="fill:#000000;fill-opacity:0.47058824;fill-rule:nonzero;stroke:none;stroke-width:1;stroke-linejoin:miter;stroke-miterlimit:4;stroke-dasharray:none;stroke-opacity:1" />
    <path
       d="M 183.45829,2.3462206 L 183.45829,1.0337206 L 197.1458,1.0337206 L 210.83329,1.0337206 L 210.83329,2.3462206 L 210.83329,3.6587206 L 197.1458,3.6587206 L 183.45829,3.6587206 L 183.45829,2.3462206 z"
       id="path3200"
       style="fill:#000000;fill-opacity:0.47058824;fill-rule:nonzero;stroke:none;stroke-width:1;stroke-linejoin:miter;stroke-miterlimit:4;stroke-dasharray:none;stroke-opacity:1" />
    <path
       d="M 79.877934,2.3462206 L 79.877934,1.0337206 L 93.752935,1.0337206 L 107.62794,1.0337206 L 107.62794,2.3462206 L 107.62794,3.6587206 L 93.752935,3.6587206 L 79.877934,3.6587206 L 79.877934,2.3462206 z"
       id="path3202"
       style="fill:#000000;fill-opacity:0.47058824;fill-rule:nonzero;stroke:none;stroke-width:1;stroke-linejoin:miter;stroke-miterlimit:4;stroke-dasharray:none;stroke-opacity:1" />
    <path
       d="M 79.877934,61.631935 L 79.877934,60.319435 L 93.752935,60.319435 L 107.62794,60.319435 L 107.62794,61.631935 L 107.62794,62.944435 L 93.752935,62.944435 L 79.877934,62.944435 L 79.877934,61.631935 z"
       id="path3204"
       style="fill:#000000;fill-opacity:0.47058824;fill-rule:nonzero;stroke:none;stroke-width:1;stroke-linejoin:miter;stroke-miterlimit:4;stroke-dasharray:none;stroke-opacity:1" />
    <path
       d="M 4.5297202,61.631935 L 4.5297202,60.319435 L 18.21722,60.319435 L 31.904721,60.319435 L 31.904721,61.631935 L 31.904721,62.944435 L 18.21722,62.944435 L 4.5297202,62.944435 L 4.5297202,61.631935 z"
       id="path3206"
       style="fill:#000000;fill-opacity:0.47058824;fill-rule:nonzero;stroke:none;stroke-width:1;stroke-linejoin:miter;stroke-miterlimit:4;stroke-dasharray:none;stroke-opacity:1" />
    <path
       d="M 60.428827,45.739077 L 60.428827,31.170328 L 61.610078,31.170328 L 62.791327,31.170328 L 62.791327,45.739077 L 62.791327,60.307828 L 61.610078,60.307828 L 60.428827,60.307828 L 60.428827,45.739077 z"
       id="path3210"
       style="fill:#000000;fill-opacity:0.47058824;fill-rule:nonzero;stroke:none;stroke-width:1;stroke-linejoin:miter;stroke-miterlimit:4;stroke-dasharray:none;stroke-opacity:1" />
    <path
       d="M 32.020792,2.3462206 L 32.020792,1.0337206 L 45.895792,1.0337206 L 59.770792,1.0337206 L 59.770792,2.3462206 L 59.770792,3.6587206 L 45.895792,3.6587206 L 32.020792,3.6587206 L 32.020792,2.3462206 z"
       id="path3212"
       style="fill:#000000;fill-opacity:0.47058824;fill-rule:nonzero;stroke:none;stroke-width:1;stroke-linejoin:miter;stroke-miterlimit:4;stroke-dasharray:none;stroke-opacity:1" />
  </g>
</svg>
