<?xml version="1.0" encoding="UTF-8" standalone="no"?>
<!-- Created with Inkscape (http://www.inkscape.org/) -->
<svg
   xmlns:dc="http://purl.org/dc/elements/1.1/"
   xmlns:cc="http://creativecommons.org/ns#"
   xmlns:rdf="http://www.w3.org/1999/02/22-rdf-syntax-ns#"
   xmlns:svg="http://www.w3.org/2000/svg"
   xmlns="http://www.w3.org/2000/svg"
   xmlns:sodipodi="http://sodipodi.sourceforge.net/DTD/sodipodi-0.dtd"
   xmlns:inkscape="http://www.inkscape.org/namespaces/inkscape"
   version="1.0"
   width="64"
   height="64"
   id="svg2"
   sodipodi:version="0.32"
   inkscape:version="0.46"
   sodipodi:docname="case-b-3d.svg"
   inkscape:output_extension="org.inkscape.output.svg.inkscape">
  <metadata
     id="metadata18">
    <rdf:RDF>
      <cc:Work
         rdf:about="">
        <dc:format>image/svg+xml</dc:format>
        <dc:type
           rdf:resource="http://purl.org/dc/dcmitype/StillImage" />
      </cc:Work>
    </rdf:RDF>
  </metadata>
  <sodipodi:namedview
     inkscape:window-height="974"
     inkscape:window-width="1264"
     inkscape:pageshadow="2"
     inkscape:pageopacity="0.0"
     guidetolerance="10.0"
     gridtolerance="10.0"
     objecttolerance="10.0"
     borderopacity="1.0"
     bordercolor="#666666"
     pagecolor="#ffffff"
     id="base"
     showgrid="false"
     inkscape:zoom="18.53898"
     inkscape:cx="6.5534448"
     inkscape:cy="48.095819"
     inkscape:window-x="0"
     inkscape:window-y="14"
     inkscape:current-layer="svg2" />
  <defs
     id="defs4">
    <inkscape:perspective
       sodipodi:type="inkscape:persp3d"
       inkscape:vp_x="0 : 8.8107147 : 1"
       inkscape:vp_y="6.1230318e-14 : 1000 : 0"
       inkscape:vp_z="17.88929 : 8.8107147 : 1"
       inkscape:persp3d-origin="8.9446449 : 5.8738098 : 1"
       id="perspective20" />
  </defs>
  <path
     style="fill:none;fill-rule:evenodd;stroke:#000000;stroke-width:1;stroke-linecap:butt;stroke-linejoin:round;stroke-miterlimit:4;stroke-dasharray:none;stroke-opacity:1"
     id="path2413"
     d="M 52.777661,14.90969 L 26.765482,13.318727 L 0.75330306,11.727763 L 7.9126207,6.238952 L 15.071938,0.75014064 L 39.25449,2.2615613 L 63.437077,3.7729819 L 63.357499,25.80777 L 63.277956,47.842523 L 52.777661,62.47933 L 26.765482,60.331566 L 0.75330306,58.183768 L 0.75330306,34.955765 L 0.75330306,11.727763 M 63.437077,3.6138962 L 58.186894,9.3413361 L 52.936747,15.068776 C 52.936747,15.068776 52.936747,31.606806 52.936747,38.694528 C 52.936747,45.78225 52.936747,62.320244 52.936747,62.320244 M 0.7533387,34.95573 L 52.777626,38.774071 M 39.25449,2.1820184 L 27.004146,13.318727 M 26.845025,13.318727 L 26.845025,60.251988 M 58.186894,9.3413361 L 58.346016,54.683634 M 52.936747,38.774035 L 63.437077,26.046399 M 58.186894,9.3413005 L 7.9126207,6.1594092" />
  <path
     style="fill:none;stroke:#ffffff;stroke-width:0.35134909;stroke-miterlimit:4;stroke-dasharray:none;stroke-opacity:1"
     d="M 25.071654,59.616823 C 24.90383,59.590116 19.497256,59.139639 13.057043,58.615767 L 1.3475645,57.663267 L 1.3475645,46.632358 C 1.3475645,37.910173 1.387479,35.601109 1.5382727,35.599864 C 1.9615013,35.596368 24.965728,37.287161 25.567495,37.365992 L 26.215902,37.450935 L 26.215902,48.57894 L 26.215902,59.706944 L 25.796344,59.686169 C 25.565588,59.67474 25.239477,59.643538 25.071654,59.616828 L 25.071654,59.616823 z"
     id="path3213" />
  <path
     style="fill:none;stroke:#ffffff;stroke-width:0.35134909;stroke-miterlimit:4;stroke-dasharray:none;stroke-opacity:1"
     d="M 39.79432,60.841546 C 33.542908,60.311271 28.204988,59.873385 27.932275,59.868462 L 27.436434,59.859511 L 27.436434,48.664618 L 27.436434,37.469718 L 28.084842,37.532778 C 29.162405,37.637561 51.592015,39.262897 51.961497,39.262969 L 52.304772,39.263035 L 52.304772,50.552955 L 52.304772,61.842875 L 51.732648,61.82427 C 51.417979,61.814041 46.045732,61.371812 39.79432,60.841541 L 39.79432,60.841546 z"
     id="path3215" />
  <path
     style="fill:#000000;fill-opacity:0.47058824;stroke:none;stroke-width:0.35134909;stroke-miterlimit:4;stroke-dasharray:none;stroke-opacity:1"
     d="M 53.418507,49.794359 L 53.418507,38.548955 L 55.541089,35.97788 L 57.66367,33.406803 L 57.763372,36.338045 C 57.818199,37.950226 57.872264,42.778045 57.883513,47.066531 L 57.903963,54.863776 L 55.801629,57.799583 C 54.645355,59.414277 53.636127,60.803873 53.558907,60.887575 C 53.478396,60.974847 53.418507,56.243286 53.418507,49.794359 z"
     id="path3217" />
  <path
     style="fill:#000000;fill-opacity:0.47058824;stroke:none;stroke-width:0.35134909;stroke-miterlimit:4;stroke-dasharray:none;stroke-opacity:0.47058824"
     d="M 58.770768,42.770489 L 58.774463,32.077485 L 60.624253,29.834758 C 61.641634,28.601258 62.577514,27.48607 62.703984,27.356564 C 62.903809,27.15194 62.920071,28.494749 62.828122,37.609031 L 62.722313,48.096967 L 60.808863,50.780229 C 59.75646,52.256024 58.866531,53.463493 58.831239,53.463493 C 58.795944,53.463493 58.768737,48.651641 58.77077,42.770489 L 58.770768,42.770489 z"
     id="path3219" />
  <path
     style="fill:#000000;fill-opacity:0.31372549;stroke:none;stroke-width:2.30292439;stroke-miterlimit:4;stroke-dasharray:none;stroke-opacity:0.47058824"
     d="M 14.022672,59.398475 C 7.1943679,58.833342 1.3671837,58.333369 1.0733737,58.287425 L 0.53917041,58.203896 L 0.59278918,46.687607 C 0.62724073,39.287532 0.7036632,35.117605 0.80659963,35.021049 C 0.90677425,34.927087 5.6783866,35.221851 13.542088,35.807786 C 20.458499,36.323142 26.315621,36.747625 26.557916,36.751092 L 26.998452,36.757395 L 26.998452,48.611811 C 26.998452,59.802599 26.982758,60.465102 26.71811,60.446113 C 26.563923,60.435047 20.850976,59.963613 14.022672,59.398478 L 14.022672,59.398475 z"
     id="path3221" />
  <path
     style="fill:#000000;fill-opacity:0.31372549;stroke:none;stroke-width:2.30292439;stroke-miterlimit:4;stroke-dasharray:none;stroke-opacity:0.47058824"
     d="M 40.27109,61.562353 C 33.707107,61.006943 27.958117,60.547367 27.495554,60.541067 L 26.654531,60.529612 L 26.654531,48.585644 C 26.654531,42.016462 26.708597,36.672786 26.774677,36.710807 C 26.840757,36.748825 32.78799,37.203346 39.990749,37.720845 L 53.086675,38.661749 L 53.086675,50.636947 L 53.086675,62.612144 L 52.64614,62.592159 C 52.403845,62.581168 46.835072,62.117753 40.27109,61.562348 L 40.27109,61.562353 z"
     id="path3223" />
  <path
     style="fill:#000000;fill-opacity:0.19607843;stroke:none;stroke-width:2.30292439;stroke-miterlimit:4;stroke-dasharray:none;stroke-opacity:0.47058824"
     d="M 21.373939,6.5718434 C 14.898064,6.1536788 9.4571056,5.7835856 9.2829231,5.7494144 C 9.0469033,5.7031085 9.7188055,5.1089091 11.920485,3.4168739 C 14.279979,1.6035518 14.956512,1.1593989 15.280884,1.2107125 C 15.50426,1.2460482 20.73316,1.5772831 26.90066,1.9467852 C 33.068161,2.316289 38.165832,2.6620119 38.228819,2.7150604 C 38.335933,2.8052741 33.515313,7.2687036 33.26382,7.3121677 C 33.200262,7.3231539 27.849814,6.9900063 21.373939,6.5718434 z"
     id="path3225" />
  <path
     style="fill:#000000;fill-opacity:1;stroke:none;stroke-width:1.5;stroke-miterlimit:4;stroke-dasharray:none;stroke-opacity:1"
     d="M 52.538336,29.798443 C 45.695838,29.051107 39.645079,23.879682 38.619665,17.084318 L 36.657162,18.95395 L 35.60043,17.88586 L 38.619665,14.970571 L 39.012165,14.596645 L 39.495243,14.917346 L 42.997555,17.145676 L 42.303131,18.320217 L 40.008513,16.848985 C 40.841598,23.012321 46.273575,27.685195 52.538336,28.36943 L 52.538336,29.798443 z"
     id="path3407" />
  <path
     id="path3425"
     d="M 38.624216,13.729331 C 41.202508,11.760709 47.156815,10.749947 52.987522,11.536686 L 52.02939,10.63476 L 53.203619,10.484926 L 54.709398,11.878813 L 54.901027,12.0592 L 54.500741,12.154817 L 51.677435,12.863688 L 50.920523,12.461514 L 52.779467,11.998907 C 47.518978,11.255733 42.14889,12.158222 39.788298,13.960627 L 38.624216,13.729331 z"
     style="fill:#000000;fill-opacity:1;stroke:#000000;stroke-width:0.22936855;stroke-miterlimit:4;stroke-dasharray:none;stroke-opacity:1" />
  <path
     id="path3427"
     d="M 55.73343,12.807946 C 56.706822,18.744127 56.226244,25.477811 54.384632,28.566821 L 55.283539,29.583568 L 55.150562,30.813847 L 53.75605,29.262425 L 53.57627,29.059078 L 53.587228,28.551808 L 53.637902,24.905962 L 54.108524,25.096919 L 54.071966,27.489296 C 55.759234,24.768218 56.199678,18.713184 55.308475,13.278218 L 55.73343,12.807946 z"
     style="fill:#000000;fill-opacity:1;stroke:#000000;stroke-width:0.11342405;stroke-miterlimit:4;stroke-dasharray:none;stroke-opacity:1" />
  <path
     id="path3429"
     d="M 15.888747,13.051693 C 15.791984,20.103592 10.960296,25.694721 3.9133965,25.796105 L 6.0784534,28.116578 L 5.0610822,29.069461 L 1.6892602,25.493937 L 1.256249,25.029843 L 1.5450126,24.570285 L 3.536743,21.224657 L 4.8426088,22.119079 L 3.5258,24.309428 C 9.927051,24.318912 14.296514,19.303892 14.385106,12.847411 L 15.888747,13.051693 z"
     style="fill:#000000;fill-opacity:1;stroke:none;stroke-width:1.5;stroke-miterlimit:4;stroke-dasharray:none;stroke-opacity:1" />
  <path
     id="path2393"
     d="M 60.050333,6.8636282 C 52.189341,6.4681333 47.080381,5.2704275 48.632313,3.9547042 L 45.526445,4.2330536 L 44.701564,3.9928747 L 49.495721,3.5573257 L 50.116897,3.501656 L 50.562432,3.5799497 L 53.832093,4.1293891 L 52.523558,4.3243206 L 50.385976,3.9622201 C 48.862674,5.1519565 53.436786,6.2328762 60.634047,6.5949778 L 60.050333,6.8636282 z"
     style="fill:#000000;fill-opacity:1;stroke:none;stroke-width:1.5;stroke-miterlimit:4;stroke-dasharray:none;stroke-opacity:1" />
  <path
     style="fill:#000000;fill-opacity:1;stroke:none;stroke-width:1.5;stroke-miterlimit:4;stroke-dasharray:none;stroke-opacity:1"
     d="M 63.093357,18.190349 C 61.162471,18.351032 59.904659,14.850841 60.281553,9.4780932 L 59.520005,11.206993 L 59.316776,10.462523 L 60.492269,7.7712422 L 60.644579,7.4254622 L 60.754188,7.6304792 L 61.5585,9.0387272 L 61.237892,10.064721 L 60.712053,9.1329582 C 60.341797,14.016819 61.46796,17.183536 63.235814,17.036419 L 63.093357,18.190349 z"
     id="path2395" />
  <path
     style="fill:#000000;fill-opacity:1;stroke:#000000;stroke-width:0.2;stroke-miterlimit:4;stroke-dasharray:none;stroke-opacity:1"
     d="M 6.2444842,8.1402011 C 14.255077,9.1364772 18.997571,10.614416 16.729044,11.648213 L 20.108254,11.658157 L 20.850897,11.938097 L 15.631905,11.927952 L 14.956065,11.925964 L 14.529593,11.820167 L 11.387461,11.065947 L 12.849443,11.001577 L 14.902221,11.497215 C 17.078759,10.572285 12.836987,9.2414774 5.5027579,8.3293211 L 6.2444842,8.1402011 z"
     id="path2399" />
</svg>
