<?xml version="1.0" encoding="UTF-8" standalone="no"?>
<!-- Created with Inkscape (http://www.inkscape.org/) -->
<svg
   xmlns:svg="http://www.w3.org/2000/svg"
   xmlns="http://www.w3.org/2000/svg"
   xmlns:xlink="http://www.w3.org/1999/xlink"
   xmlns:inkscape="http://www.inkscape.org/namespaces/inkscape"
   version="1.0"
   width="84"
   height="84"
   id="svg2">
  <defs
     id="defs4">
    <pattern
       xlink:href="#Strips1_3"
       id="pattern4708"
       patternTransform="matrix(0.1372714,0.411814,-0.411814,0.1372714,0,0)" />
    <pattern
       xlink:href="#Strips1_3"
       id="pattern4706"
       patternTransform="matrix(0.1535999,0.4127819,-0.4127819,0.1535999,0,0)" />
    <pattern
       inkscape:stockid="Stripes 1:3"
       id="Strips1_3"
       patternTransform="matrix(0.5177951,0.5477365,-0.5477365,0.5177951,0,0)"
       height="1"
       width="4"
       patternUnits="userSpaceOnUse">
      <rect
         id="rect3948"
         height="2"
         width="1"
         y="-0.5"
         x="0"
         style="fill:black;stroke:none" />
    </pattern>
    <pattern
       inkscape:stockid="Stripes 1:1"
       id="Strips1_1"
       patternTransform="translate(0,0) scale(10,10)"
       height="1"
       width="2"
       patternUnits="userSpaceOnUse">
      <rect
         id="rect3930"
         height="2"
         width="1"
         y="-0.5"
         x="0"
         style="fill:black;stroke:none" />
    </pattern>
  </defs>
  <path
     d="M 83.176828,5.43614 L 69.42136,20.442078 L 69.205598,82.341655 M 1.0608713,16.065331 L 1.0608713,76.922857 L 69.212956,82.550058 L 82.968379,63.375792 L 83.176828,5.6445389 L 19.818331,1.6846104 L 1.3093942,16.189594 L 69.461479,20.357929 L 69.337885,82.508863"
     id="path2389"
     style="fill:none;fill-rule:evenodd;stroke:#000000;stroke-width:1;stroke-linecap:butt;stroke-linejoin:round;stroke-miterlimit:4;stroke-dasharray:none;stroke-opacity:1" />
  <path
     d="M 24.230981,17.147344 L 23.982458,78.905281"
     id="path3334"
     style="fill:none;fill-rule:evenodd;stroke:#000000;stroke-width:1px;stroke-linecap:butt;stroke-linejoin:miter;stroke-opacity:1" />
  <path
     d="M 46.598041,80.52068 L 47.095087,19.011265"
     id="path3336"
     style="fill:none;fill-rule:evenodd;stroke:#000000;stroke-width:1px;stroke-linecap:butt;stroke-linejoin:miter;stroke-opacity:1" />
  <path
     d="M 69.337885,62.005725 L 1.2426144,56.911005"
     id="path3338"
     style="fill:none;fill-rule:evenodd;stroke:#000000;stroke-width:1px;stroke-linecap:butt;stroke-linejoin:miter;stroke-opacity:1" />
  <path
     d="M 1.118353,36.283606 L 69.462146,41.502587"
     id="path3340"
     style="fill:none;fill-rule:evenodd;stroke:#000000;stroke-width:1px;stroke-linecap:butt;stroke-linejoin:miter;stroke-opacity:1" />
  <path
     d="M 78.398616,10.561483 L 14.000124,6.3210616"
     id="path3348"
     style="fill:none;fill-rule:evenodd;stroke:#000000;stroke-width:1px;stroke-linecap:butt;stroke-linejoin:miter;stroke-opacity:1" />
  <path
     d="M 7.8698906,11.151731 L 73.976978,15.314489"
     id="path3350"
     style="fill:none;fill-rule:evenodd;stroke:#000000;stroke-width:1px;stroke-linecap:butt;stroke-linejoin:miter;stroke-opacity:1" />
  <path
     d="M 78.429685,69.803129 L 78.429685,10.623617"
     id="path3354"
     style="fill:none;fill-rule:evenodd;stroke:#000000;stroke-width:1px;stroke-linecap:butt;stroke-linejoin:miter;stroke-opacity:1" />
  <path
     d="M 73.883783,15.57854 L 74.33423,75.348295"
     id="path3358"
     style="fill:none;fill-rule:evenodd;stroke:#000000;stroke-width:1px;stroke-linecap:butt;stroke-linejoin:miter;stroke-opacity:1" />
  <path
     d="M 69.25,61.875 L 82.875,44.625"
     id="path3360"
     style="fill:none;fill-rule:evenodd;stroke:#000000;stroke-width:1px;stroke-linecap:butt;stroke-linejoin:miter;stroke-opacity:1" />
  <path
     d="M 69.375,41.25 L 82.875,26.25"
     id="path3362"
     style="fill:none;fill-rule:evenodd;stroke:#000000;stroke-width:1px;stroke-linecap:butt;stroke-linejoin:miter;stroke-opacity:1" />
  <path
     d="M 47.25,19 L 62.5,4.2500002"
     id="path3364"
     style="fill:none;fill-rule:evenodd;stroke:#000000;stroke-width:1px;stroke-linecap:butt;stroke-linejoin:miter;stroke-opacity:1" />
  <path
     d="M 24.375,17.5 L 39.375,2.8750002"
     id="path3366"
     style="fill:none;fill-rule:evenodd;stroke:#000000;stroke-width:1px;stroke-linecap:butt;stroke-linejoin:miter;stroke-opacity:1" />
  <path
     d="M 34.702248,59.358521 L 24.10381,58.555079 L 24.10381,48.349246 C 24.10381,38.716809 24.116715,38.143428 24.333498,38.143665 C 24.743116,38.144119 46.854251,39.8499 46.880951,39.883111 C 46.895181,39.900811 46.876795,44.477866 46.840101,50.054351 L 46.773379,60.193413 L 46.037036,60.177688 C 45.632041,60.169041 40.531388,59.800416 34.702248,59.358522 L 34.702248,59.358521 z"
     id="path3384"
     style="fill:#000000;fill-opacity:0.31372549;stroke:none;stroke-width:0.0625;stroke-miterlimit:4;stroke-dasharray:none;stroke-opacity:1" />
  <path
     d="M 12.124363,77.758081 C 6.3132689,77.266223 1.4553783,76.859927 1.3290502,76.855203 C 1.1124037,76.847103 1.0993627,76.283965 1.0993627,66.937238 C 1.0993627,57.588332 1.1123538,57.0277 1.3290502,57.02499 C 1.7438159,57.019805 23.204494,58.61096 23.641551,58.679305 L 24.068113,58.746009 L 24.068113,62.590374 C 24.068113,64.704781 24.028946,69.190855 23.981075,72.55943 L 23.894037,78.684113 L 23.292012,78.668243 C 22.9609,78.659512 17.935457,78.24994 12.124363,77.758082 L 12.124363,77.758081 z"
     id="path3386"
     style="fill:#000000;fill-opacity:0.31372549;stroke:none;stroke-width:0.5;stroke-miterlimit:4;stroke-dasharray:none;stroke-opacity:1" />
  <path
     d="M 34.808254,79.636591 C 28.961066,79.143461 24.132706,78.736907 24.078566,78.733138 C 23.967611,78.725408 23.976009,71.827755 24.096554,63.959552 L 24.177004,58.708448 L 34.939504,59.520934 C 40.858879,59.9678 45.923488,60.337439 46.194191,60.342351 L 46.686379,60.351284 L 46.686379,66.695552 C 46.686379,70.184906 46.64734,74.732718 46.599625,76.801806 L 46.512872,80.563784 L 45.976191,80.548483 C 45.681011,80.54007 40.655441,80.129716 34.808254,79.636588 L 34.808254,79.636591 z"
     id="path3388"
     style="fill:#000000;fill-opacity:0.31372549;stroke:none;stroke-width:0.5;stroke-miterlimit:4;stroke-dasharray:none;stroke-opacity:1" />
  <path
     d="M 57.565733,81.516278 C 51.718546,81.023031 46.861916,80.616248 46.773225,80.612317 C 46.646443,80.606699 46.629285,78.451595 46.692971,70.531733 C 46.737524,64.991342 46.785615,60.443395 46.799842,60.425184 C 46.838611,60.375546 69.191607,62.062212 69.223249,62.11716 C 69.23826,62.14322 69.229955,66.727123 69.2048,72.303608 L 69.159064,82.44267 L 68.678027,82.427882 C 68.413451,82.419747 63.412921,82.009527 57.565733,81.516279 L 57.565733,81.516278 z"
     id="path3390"
     style="fill:#000000;fill-opacity:0.31372549;stroke:none;stroke-width:0.5;stroke-miterlimit:4;stroke-dasharray:none;stroke-opacity:1" />
  <path
     d="M 69.799363,71.390361 L 69.799363,61.612075 L 71.7353,59.162962 L 73.671238,56.713857 L 73.75137,62.127182 C 73.795449,65.104517 73.839745,69.34332 73.849812,71.546746 L 73.868113,75.552973 L 71.888028,78.306124 C 70.798981,79.820351 69.883512,81.083875 69.853653,81.113954 C 69.823793,81.144028 69.799363,76.768415 69.799363,71.390359 L 69.799363,71.390361 z"
     id="path3392"
     style="fill:#000000;fill-opacity:0.47058824;stroke:none;stroke-width:0.5;stroke-miterlimit:4;stroke-dasharray:none;stroke-opacity:1" />
  <path
     d="M 74.592977,46.557965 C 74.592605,42.124446 74.557924,37.935931 74.51591,37.25015 L 74.43952,36.003275 L 76.036045,34.2314 C 76.914135,33.256868 77.716628,32.37304 77.819364,32.267337 C 77.980977,32.101061 78.006157,33.30458 78.006157,41.194119 L 78.006157,50.313089 L 76.35418,52.411303 C 75.445588,53.565327 74.677776,54.534133 74.647928,54.564213 C 74.618077,54.594287 74.593351,50.991477 74.592979,46.557963 L 74.592977,46.557965 z"
     id="path3406"
     style="fill:#000000;fill-opacity:0.47058824;stroke:none;stroke-width:0.5;stroke-miterlimit:4;stroke-dasharray:none;stroke-opacity:1" />
  <path
     d="M 74.804523,71.905871 C 74.756972,70.700267 74.71807,66.498353 74.71807,62.568286 L 74.71807,55.422708 L 76.325882,53.384167 L 77.933695,51.345619 L 77.967396,60.559499 L 78.001098,69.773379 L 76.536152,71.83177 C 75.730429,72.963886 75.030651,73.9369 74.981087,73.994024 C 74.931519,74.051149 74.852069,73.111481 74.80452,71.905874 L 74.804523,71.905871 z"
     id="path3408"
     style="fill:#000000;fill-opacity:0.47058824;stroke:none;stroke-width:0.5;stroke-miterlimit:4;stroke-dasharray:none;stroke-opacity:1" />
  <path
     d="M 78.966662,59.207147 L 78.97162,50.026209 L 80.705725,47.831104 L 82.439828,45.635998 L 82.473554,54.553508 L 82.507272,63.471009 L 80.84545,65.804863 C 79.93145,67.088477 79.133696,68.194818 79.072666,68.263396 C 79.011634,68.331973 78.963937,64.256661 78.966664,59.207146 L 78.966662,59.207147 z"
     id="path3410"
     style="fill:#000000;fill-opacity:0.47058824;stroke:none;stroke-width:0.5;stroke-miterlimit:4;stroke-dasharray:none;stroke-opacity:1" />
  <g
     id="g3188">
    <path
       d="M 62.6875,5.09375 C 62.557058,5.1316913 62.459886,5.2410093 62.4375,5.375 L 61.3125,10.875 L 61.125,11.625 C 61.087346,11.79589 61.180354,11.968618 61.34375,12.03125 L 62.09375,12.34375 L 67.1875,14.59375 C 67.360256,14.677591 67.56835,14.608226 67.65625,14.4375 L 68.46875,12.625 C 68.552591,12.452244 68.483226,12.24415 68.3125,12.15625 L 66.15625,11.21875 C 71.561285,9.0994084 75.320697,10.254716 77.3125,12.78125 C 79.222659,15.204223 79.458298,18.87848 77.65625,22.21875 L 77.0625,20.25 C 77.038282,20.158425 76.978335,20.080397 76.896092,20.033401 C 76.81385,19.986405 76.71619,19.974373 76.625,20 L 74.6875,20.5625 C 74.595925,20.586718 74.517897,20.646665 74.470901,20.728908 C 74.423905,20.81115 74.411873,20.90881 74.4375,21 L 75.9375,25.875 C 75.937039,25.885412 75.937039,25.895838 75.9375,25.90625 L 76.1875,26.65625 C 76.244332,26.794492 76.381949,26.882067 76.53125,26.875 L 77.28125,26.84375 C 77.291662,26.844211 77.302088,26.844211 77.3125,26.84375 L 82.6875,26.59375 C 82.862886,26.57327 82.996278,26.426539 83,26.25 L 82.9375,24.25 C 82.940123,24.157617 82.906471,24.067879 82.84375,24 C 82.76826,23.929059 82.665457,23.894792 82.5625,23.90625 L 79.6875,24.03125 C 82.28298,19.701373 82.183653,14.608402 79.4375,11.125 C 76.568921,7.4863044 71.02657,6.1708299 64.40625,9 L 65.0625,5.875 C 65.094616,5.6856787 64.969759,5.5053309 64.78125,5.46875 L 62.84375,5.09375 C 62.792318,5.0820983 62.738932,5.0820983 62.6875,5.09375 L 62.6875,5.09375 z"
       id="path3186"
       style="fill:#ffffff;fill-opacity:1;fill-rule:evenodd;stroke:none;stroke-width:2;stroke-linecap:butt;stroke-linejoin:miter;stroke-miterlimit:4;stroke-dasharray:none;stroke-opacity:1" />
    <path
       d="M 63,11 C 77.393339,3.1139968 84.756191,16.721286 77.5,25.125 M 63.75,5.625 L 62.625,11.125 L 67.75,13.375 M 75.75,20.625 L 77.25,25.5 L 82.625,25.25"
       id="path2403"
       style="fill:none;fill-rule:evenodd;stroke:#000000;stroke-width:2;stroke-linecap:butt;stroke-linejoin:miter;stroke-miterlimit:4;stroke-dasharray:none;stroke-opacity:1" />
  </g>
  <path
     d="M 11.029885,58.034521 C 5.4462243,57.600529 0.83506556,57.202739 0.78286781,57.150541 C 0.73066731,57.098346 0.72037131,52.301668 0.75997956,46.491259 L 0.83199931,35.926881 L 12.244499,36.805659 C 18.521374,37.288989 23.873562,37.692553 24.138249,37.702473 C 24.587938,37.719316 24.619499,38.414877 24.619499,48.308008 L 24.619499,58.895508 L 22.900749,58.859538 C 21.955437,58.839767 16.613549,58.468504 11.029888,58.034516 L 11.029885,58.034521 z"
     id="path3192"
     style="opacity:1;fill:#000000;fill-opacity:0.31372549;fill-rule:nonzero;stroke:none;stroke-width:0.5;stroke-miterlimit:4;stroke-dasharray:none;stroke-opacity:1" />
  <path
     d="M 40.568409,12.827423 L 29.761382,12.124294 L 31.794088,10.091587 L 33.826798,8.0588646 L 45.52603,8.8190416 L 57.225261,9.5792021 L 55.12535,11.581293 C 53.430555,13.197151 52.866277,13.578299 52.200436,13.55697 C 51.746686,13.542436 46.512273,13.214133 40.568407,12.827414 L 40.568409,12.827423 z"
     id="path3194"
     style="opacity:1;fill:#000000;fill-opacity:0.19607843;fill-rule:nonzero;stroke:none;stroke-width:0.5;stroke-miterlimit:4;stroke-dasharray:none;stroke-opacity:1" />
  <path
     d="M 18.028537,11.413129 C 12.842304,11.073768 8.5559282,10.749389 8.5032547,10.692288 C 8.4505812,10.635178 9.5382363,9.7141402 10.920265,8.6455204 L 13.433045,6.7025794 L 22.645545,7.3244342 C 27.71242,7.6664434 32.41492,7.9567169 33.095545,7.9694769 L 34.333045,7.9926814 L 32.207284,10.046824 C 29.70106,12.468601 31.503804,12.294883 18.028535,11.413129 L 18.028537,11.413129 z"
     id="path3196"
     style="opacity:1;fill:#000000;fill-opacity:0.19607843;fill-rule:nonzero;stroke:none;stroke-width:0.5;stroke-miterlimit:4;stroke-dasharray:none;stroke-opacity:1" />
  <path
     d="M 57.186273,61.483621 L 46.305779,60.645177 L 46.424766,50.039533 C 46.490216,44.206414 46.560187,39.422712 46.580266,39.409074 C 46.600346,39.395432 51.752391,39.790558 58.029266,40.28712 C 64.306141,40.783682 69.534578,41.197029 69.648016,41.205666 C 69.761453,41.21431 69.854266,45.985747 69.854266,51.808872 L 69.854266,62.396372 L 68.960516,62.359227 C 68.468953,62.338794 63.170545,61.944774 57.186273,61.483627 L 57.186273,61.483621 z"
     id="path3198"
     style="opacity:1;fill:#000000;fill-opacity:0.31372549;fill-rule:nonzero;stroke:none;stroke-width:0.5;stroke-miterlimit:4;stroke-dasharray:none;stroke-opacity:1" />
  <path
     d="M 69.85888,50.732819 L 69.85888,40.763247 L 71.78388,38.62295 L 73.70888,36.482652 L 73.70888,46.284243 L 73.70888,56.085837 L 71.906458,58.394114 C 70.91512,59.663653 70.04887,60.702375 69.981453,60.702375 C 69.914032,60.702375 69.85888,56.216072 69.85888,50.732817 L 69.85888,50.732819 z"
     id="path3200"
     style="opacity:1;fill:#000000;fill-opacity:0.47058824;fill-rule:nonzero;stroke:none;stroke-width:0.5;stroke-miterlimit:4;stroke-dasharray:none;stroke-opacity:1" />
  <path
     d="M 78.85888,40.16953 L 78.85888,30.832455 L 80.78388,28.692158 L 82.70888,26.55186 L 82.70888,35.639433 L 82.70888,44.727003 L 81.011245,46.855553 C 80.077537,48.026242 79.211287,49.101646 79.086239,49.245333 C 78.961185,49.389018 78.85888,45.304905 78.85888,40.169525 L 78.85888,40.16953 z"
     id="path3202"
     style="opacity:1;fill:#000000;fill-opacity:0.47058824;fill-rule:nonzero;stroke:none;stroke-width:0.5;stroke-miterlimit:4;stroke-dasharray:none;stroke-opacity:1" />
  <path
     d="M 34.630016,39.222503 L 23.698766,38.380315 L 23.698766,27.847147 L 23.698766,17.313979 L 24.867516,17.317251 C 26.903179,17.322949 47.398852,18.647396 47.533393,18.78194 C 47.604189,18.852749 47.572839,23.687038 47.463716,29.524823 L 47.265312,40.138979 L 46.413291,40.101834 C 45.944674,40.081402 40.642203,39.685702 34.630016,39.222497 L 34.630016,39.222503 z"
     id="path3204"
     style="opacity:0.63197027;fill:url(#Strips1_3);fill-opacity:1;fill-rule:nonzero;stroke:none;stroke-width:2;stroke-miterlimit:4;stroke-dasharray:none;stroke-opacity:1" />
  <path
     d="M 45.987267,8.0341195 C 39.971081,7.6213555 34.993655,7.2285373 34.926311,7.1611953 C 34.858974,7.093845 35.655721,6.193429 36.696873,5.160254 L 38.58988,3.2817593 L 48.307833,3.8788228 C 53.652694,4.2072085 58.932942,4.5513738 60.041711,4.6436308 L 62.057648,4.8113643 L 60.048589,6.8339315 C 58.768923,8.1221965 57.837358,8.8434363 57.482652,8.8205453 C 57.176368,8.8007783 52.003439,8.446889 45.987262,8.0341223 L 45.987267,8.0341195 z"
     id="path3208"
     style="opacity:0.40999989;fill:url(#pattern4706);fill-opacity:1;fill-rule:nonzero;stroke:none;stroke-width:2;stroke-miterlimit:4;stroke-dasharray:none;stroke-opacity:1" />
  <path
     d="M 36.002441,17.912082 C 30.708691,17.564176 25.945254,17.270435 25.417025,17.259327 L 24.456604,17.239135 L 26.654523,15.053418 L 28.852441,12.867702 L 40.471191,13.600621 C 46.861503,14.003729 52.089941,14.412795 52.089941,14.509655 C 52.089941,14.60651 51.111056,15.56965 49.914641,16.649949 C 47.971649,18.404376 47.62657,18.610424 46.683391,18.579391 C 46.102613,18.560284 41.296191,18.259995 36.002441,17.912087 L 36.002441,17.912082 z"
     id="path4680"
     style="opacity:0.40999989;fill:url(#pattern4708);fill-opacity:1;fill-rule:nonzero;stroke:none;stroke-width:2;stroke-miterlimit:4;stroke-dasharray:none;stroke-opacity:1" />
  <path
     d="M 78.84375,0.1875 C 78.677394,0.21591276 78.557408,0.36256238 78.5625,0.53125 C 78.568516,0.94055175 78.661673,1.7860554 78.75,2.6875 C 78.215667,2.4231171 77.655497,2.1626784 76.75,1.84375 C 76.663043,1.8125809 76.567124,1.8183175 76.484502,1.8596285 C 76.40188,1.9009395 76.339739,1.9742331 76.3125,2.0625 L 75.84375,3.59375 C 75.798721,3.7655937 75.894247,3.9430003 76.0625,4 C 76.725532,4.1772 77.439706,4.3526267 78.15625,4.5 C 77.782217,4.8913579 77.395825,5.2976111 76.75,6.09375 C 76.686921,6.1663181 76.657694,6.2622951 76.66962,6.3577037 C 76.681546,6.4531123 76.733499,6.5389418 76.8125,6.59375 L 78.0625,7.5 C 78.209793,7.6099293 78.417905,7.5821811 78.53125,7.4375 C 78.863799,6.9980661 79.274668,6.2991557 79.6875,5.5625 C 80.115991,6.2694444 80.506862,6.9473971 80.84375,7.40625 C 80.868512,7.4433764 80.900374,7.4752379 80.9375,7.5 C 81.051069,7.5755996 81.198931,7.5755996 81.3125,7.5 L 82.59375,6.59375 C 82.672751,6.5389418 82.724704,6.4531123 82.73663,6.3577037 C 82.748556,6.2622951 82.719329,6.1663181 82.65625,6.09375 C 82.034153,5.331556 81.60419,4.9135597 81.1875,4.5 C 81.90034,4.3867195 82.612182,4.2419444 83.34375,4 C 83.512003,3.9430003 83.607529,3.7655937 83.5625,3.59375 L 83.0625,2.0625 C 83.0055,1.8942474 82.828094,1.7987208 82.65625,1.84375 C 81.899317,2.0941736 81.251544,2.3680805 80.625,2.65625 C 80.719623,1.8678465 80.795072,1.1063242 80.8125,0.53125 C 80.813968,0.43963964 80.778223,0.35134987 80.713437,0.28656324 C 80.64865,0.22177662 80.56036,0.18603185 80.46875,0.1875 L 78.90625,0.1875 C 78.885461,0.18557184 78.864539,0.18557184 78.84375,0.1875 L 78.84375,0.1875 z"
     id="path2428"
     style="font-size:22px;font-style:normal;font-weight:normal;fill:#ffffff;fill-opacity:1;stroke:none;stroke-width:1px;stroke-linecap:butt;stroke-linejoin:miter;stroke-opacity:1;font-family:Bitstream Vera Sans" />
  <path
     d="M 76.142046,3.6870563 L 76.636186,2.1616656 C 77.774856,2.5627213 78.602003,2.9100517 79.117631,3.2036578 C 78.98156,1.9074485 78.909946,1.0158478 78.902788,0.52885313 L 80.460405,0.52885313 C 80.438916,1.2378528 80.356559,2.1258728 80.213335,3.1929156 C 80.950959,2.8205335 81.796011,2.4767839 82.748491,2.1616656 L 83.242631,3.6870563 C 82.333119,3.9878501 81.441519,4.1883707 80.567827,4.2886188 C 81.00467,4.6681879 81.620555,5.3449451 82.415483,6.3188922 L 81.126421,7.2319781 C 80.711051,6.6662328 80.220491,5.8963768 79.654741,4.9224078 C 79.124789,5.9321841 78.659295,6.7020401 78.258256,7.2319781 L 76.990678,6.3188922 C 77.821405,5.2948149 78.415806,4.6180578 78.773881,4.2886188 C 77.850051,4.1095947 76.972773,3.9090741 76.142046,3.6870563 L 76.142046,3.6870563 z"
     id="text2421"
     style="font-size:22px;font-style:normal;font-weight:normal;fill:#000000;fill-opacity:1;stroke:none;stroke-width:1px;stroke-linecap:butt;stroke-linejoin:miter;stroke-opacity:1;font-family:Bitstream Vera Sans" />
</svg>
