<?xml version="1.0" encoding="UTF-8" standalone="no"?>
<!-- Created with Inkscape (http://www.inkscape.org/) -->
<svg
   xmlns:svg="http://www.w3.org/2000/svg"
   xmlns="http://www.w3.org/2000/svg"
   xmlns:inkscape="http://www.inkscape.org/namespaces/inkscape"
   version="1.0"
   width="84"
   height="84"
   id="svg2">
  <defs
     id="defs4">
    <pattern
       inkscape:stockid="Stripes 1:3"
       id="Strips1_3"
       patternTransform="matrix(0.3338756,0.191107,-0.191107,0.3338756,0,0)"
       height="1"
       width="4"
       patternUnits="userSpaceOnUse">
      <rect
         id="rect3919"
         height="2"
         width="1"
         y="-0.5"
         x="0"
         style="fill:black;stroke:none" />
    </pattern>
    <pattern
       patternUnits="userSpaceOnUse"
       width="3"
       height="1"
       patternTransform="matrix(0.5447323,0.6005976,-0.6005976,0.5447323,0,0)"
       id="Strips1_2"
       inkscape:stockid="Stripes 1:2">
      <rect
         style="fill:black;stroke:none"
         x="0"
         y="-0.5"
         width="1"
         height="2"
         id="rect3950" />
    </pattern>
  </defs>
  <path
     d="M 79.701172,82.299997 L 64.301024,68.87966 L 0.77532033,68.669155 M 68.792748,2.1846726 L 6.3364723,2.1846726 L 0.56144242,68.676335 L 20.239425,82.096625 L 79.4873,82.299997 L 83.551257,20.485135 L 68.665222,2.4271405 L 64.387383,68.918802 L 0.60371961,68.798219 M 67.682311,24.790277 L 4.3019692,24.547809 M 2.644133,46.612397 L 65.769425,47.097334 M 21.645483,68.798219 L 26.874044,2.3619877 M 48.043332,2.2407537 L 42.687246,68.919453 M 74.441186,77.638198 L 78.793004,14.80868 M 73.835431,8.8278002 L 69.563315,73.324287 M 13.643239,77.66851 L 74.37742,77.66851 M 69.292329,73.233363 L 7.9523986,73.672835 M 21.779643,68.712474 L 39.482807,82.005521 M 42.94647,68.83443 L 58.340525,82.005521 M 65.780986,47.248472 L 80.918474,62.126928 M 67.320391,24.930788 L 82.329595,39.565335"
     id="path2404"
     style="fill:none;fill-rule:evenodd;stroke:#000000;stroke-width:1.00063336;stroke-linecap:butt;stroke-linejoin:round;stroke-miterlimit:4;stroke-dasharray:none;stroke-opacity:1" />
  <path
     d="M 10.933187,75.722658 L 8.6434733,74.148851 L 12.656098,74.066904 C 14.863036,74.02184 19.386849,73.976454 22.709015,73.96605 L 28.749322,73.947136 L 30.765808,75.459992 C 31.874876,76.292063 32.878225,77.046566 32.995475,77.136666 C 33.163577,77.265841 31.095421,77.30006 23.215774,77.298472 L 13.222892,77.296463 L 10.933187,75.722658 z"
     id="path2406"
     style="fill:#000000;fill-opacity:0.31372549;stroke:none;stroke-width:1.5;stroke-miterlimit:4;stroke-dasharray:none;stroke-opacity:1" />
  <path
     d="M 31.039306,75.663294 L 28.852295,74.020338 L 30.97039,73.937273 C 32.135341,73.891594 36.637457,73.846209 40.975093,73.836421 L 48.861699,73.818623 L 50.761227,75.449258 C 51.805963,76.346107 52.719675,77.13279 52.791693,77.197446 C 52.866522,77.264623 48.702492,77.313122 43.074476,77.310621 L 33.226317,77.30625 L 31.039306,75.663294 z"
     id="path2408"
     style="fill:#000000;fill-opacity:0.31372549;stroke:none;stroke-width:1.5;stroke-miterlimit:4;stroke-dasharray:none;stroke-opacity:1" />
  <path
     d="M 25.08243,71.198531 C 23.635399,70.117085 22.472595,69.211646 22.498418,69.186449 C 22.524246,69.161254 27.292177,69.184352 33.093823,69.237784 L 43.642267,69.334933 L 45.792096,71.161899 C 46.974499,72.166728 47.893578,72.999667 47.834493,73.01287 C 47.775404,73.026073 43.223989,73.065663 37.720232,73.100843 L 27.713402,73.164808 L 25.08243,71.198531 z"
     id="path2410"
     style="fill:#000000;fill-opacity:0.31372549;stroke:none;stroke-width:1.5;stroke-miterlimit:4;stroke-dasharray:none;stroke-opacity:1" />
  <path
     d="M 36.879664,80.010588 C 35.553023,79.007216 34.441746,78.161265 34.410158,78.130699 C 34.378576,78.100131 38.728286,78.075123 44.076189,78.075123 L 53.799649,78.075123 L 55.780493,79.768877 C 56.869965,80.700444 57.852162,81.547644 57.963172,81.651542 C 58.13658,81.813849 56.83603,81.840063 48.728369,81.837679 L 39.29174,81.834903 L 36.879664,80.010588 z"
     id="path2412"
     style="fill:#000000;fill-opacity:0.31372549;stroke:none;stroke-width:1.5;stroke-miterlimit:4;stroke-dasharray:none;stroke-opacity:1" />
  <path
     d="M 28.801329,81.708878 L 19.635445,81.639752 L 17.119993,79.912846 C 15.736496,78.963043 14.604545,78.16123 14.604545,78.131037 C 14.604545,78.10084 19.023811,78.077089 24.425136,78.078251 L 34.245728,78.080364 L 36.588886,79.837408 C 37.877624,80.803783 38.990968,81.650032 39.062986,81.71796 C 39.143057,81.793482 38.955639,81.829139 38.580572,81.809736 C 38.243224,81.792286 33.842567,81.7469 28.801329,81.708879 L 28.801329,81.708878 z"
     id="path2416"
     style="fill:#000000;fill-opacity:0.31372549;stroke:none;stroke-width:1.5;stroke-miterlimit:4;stroke-dasharray:none;stroke-opacity:1" />
  <path
     d="M 65.654618,81.86773 L 57.996955,81.831846 L 55.937401,80.069016 C 54.804649,79.09946 53.818923,78.252764 53.746905,78.18747 C 53.671111,78.118753 58.114678,78.06875 64.297626,78.06875 L 74.979288,78.06875 L 77.216961,80.018653 L 79.454637,81.968554 L 76.383458,81.936084 C 74.694303,81.918231 69.866335,81.887471 65.654618,81.867732 L 65.654618,81.86773 z"
     id="path2418"
     style="fill:#000000;fill-opacity:0.31372549;stroke:none;stroke-width:1.5;stroke-miterlimit:4;stroke-dasharray:none;stroke-opacity:1" />
  <path
     d="M 50.715202,75.608693 L 48.697822,73.894123 L 49.138552,73.804028 C 49.380948,73.754474 54.15078,73.698387 59.738193,73.679393 L 69.897095,73.644853 L 71.58053,75.114248 C 72.506409,75.922417 73.456575,76.747598 73.692006,76.947988 L 74.120061,77.312329 L 63.426325,77.317795 L 52.732579,77.323262 L 50.715202,75.608693 z"
     id="path2420"
     style="fill:#000000;fill-opacity:0.31372549;stroke:none;stroke-width:1.5;stroke-miterlimit:4;stroke-dasharray:none;stroke-opacity:1" />
  <path
     d="M 71.950996,75.875394 L 69.83551,74.034598 L 69.908549,73.426944 C 69.948712,73.092736 70.278863,68.234044 70.642204,62.629856 L 71.302823,52.440419 L 73.423121,54.50908 L 75.543431,56.577749 L 74.836182,66.917374 C 74.447205,72.604169 74.114889,77.36032 74.097702,77.486598 C 74.075634,77.648808 73.44556,77.17591 71.950996,75.875397 L 71.950996,75.875394 z"
     id="path2422"
     style="fill:#000000;fill-opacity:0.47058824;stroke:none;stroke-width:1.5;stroke-miterlimit:4;stroke-dasharray:none;stroke-opacity:1" />
  <path
     d="M 77.829498,80.961217 C 77.14524,80.357876 76.170584,79.501147 75.663578,79.057377 L 74.741779,78.250521 L 75.465374,67.868642 C 75.863367,62.158604 76.22074,57.45578 76.25954,57.417921 C 76.29834,57.380058 77.271425,58.269771 78.421958,59.395051 L 80.513821,61.441018 L 79.83662,71.708973 C 79.464169,77.356353 79.140124,81.995219 79.116526,82.017567 C 79.092916,82.039919 78.513755,81.564559 77.829498,80.961217 z"
     id="path2424"
     style="fill:#000000;fill-opacity:0.47058824;stroke:none;stroke-width:1.5;stroke-miterlimit:4;stroke-dasharray:none;stroke-opacity:1" />
  <path
     d="M 78.307859,59.880107 L 76.175583,57.794769 L 76.911294,47.067886 C 77.315958,41.168093 77.686231,35.991905 77.734155,35.565239 L 77.821281,34.789488 L 79.910758,36.842758 L 82.000236,38.896038 L 81.259839,50.057547 C 80.852626,56.196378 80.501592,61.386993 80.479773,61.592249 C 80.442779,61.940283 80.296374,61.824866 78.307844,59.880106 L 78.307859,59.880107 z"
     id="path2426"
     style="fill:#000000;fill-opacity:0.47058824;stroke:none;stroke-width:1.5;stroke-miterlimit:4;stroke-dasharray:none;stroke-opacity:1" />
  <path
     d="M 73.334368,55.019842 L 71.252471,52.973875 L 71.993006,41.946841 C 72.400301,35.881973 72.73536,30.677984 72.737592,30.382421 L 72.741659,29.845033 L 74.928997,31.996133 L 77.116336,34.147232 L 76.316906,45.557133 C 75.877232,51.832583 75.494705,56.989264 75.466862,57.016424 C 75.43902,57.043589 74.479401,56.145121 73.334368,55.019842 z"
     id="path2428"
     style="fill:#000000;fill-opacity:0.47058824;stroke:none;stroke-width:1.5;stroke-miterlimit:4;stroke-dasharray:none;stroke-opacity:1" />
  <path
     d="M 68.327428,50.136251 L 66.081274,47.939912 L 66.789129,36.651617 C 67.178453,30.44306 67.537962,25.256561 67.588036,25.126067 C 67.661032,24.935834 68.122016,25.322358 69.91358,27.075969 L 72.148071,29.263135 L 71.397075,40.559121 C 70.984032,46.771912 70.629759,51.96254 70.609816,52.093848 C 70.584125,52.263125 69.91999,51.693506 68.327428,50.136249 L 68.327428,50.136251 z"
     id="path2430"
     style="fill:#000000;fill-opacity:0.47058824;stroke:none;stroke-width:1.5;stroke-miterlimit:4;stroke-dasharray:none;stroke-opacity:1" />
  <path
     d="M 74.839894,32.501505 L 72.746433,30.450746 L 73.421526,20.297806 C 73.792847,14.713689 74.115417,9.8836176 74.138337,9.5643136 L 74.180034,8.9837593 L 76.332471,11.585961 L 78.484899,14.188169 L 77.782846,24.370216 C 77.396721,29.970343 77.047618,34.552265 77.007067,34.552265 C 76.966531,34.552265 75.991294,33.629422 74.839894,32.501505 z"
     id="path2432"
     style="fill:#000000;fill-opacity:0.47058824;stroke:none;stroke-width:1.5;stroke-miterlimit:4;stroke-dasharray:none;stroke-opacity:1" />
  <path
     d="M 79.84121,37.320552 L 77.732615,35.258342 L 78.42936,25.258249 C 78.812563,19.758193 79.148049,15.236729 79.174885,15.210549 C 79.201694,15.184371 80.131555,16.259311 81.241192,17.599306 L 83.258707,20.035663 L 83.186882,20.729557 C 83.147381,21.111195 82.86762,25.296359 82.565187,30.029914 C 82.262741,34.763471 82.00057,38.804315 81.982554,39.009571 C 81.952204,39.355525 81.795915,39.232256 79.84121,37.320555 L 79.84121,37.320552 z"
     id="path2434"
     style="fill:#000000;fill-opacity:0.47058824;stroke:none;stroke-width:1.5;stroke-miterlimit:4;stroke-dasharray:none;stroke-opacity:1" />
  <path
     d="M 50.720305,46.97143 L 44.58346,46.936847 L 44.583581,46.521879 C 44.583648,46.293646 44.9672,41.352223 45.435918,35.540937 C 45.904637,29.729652 46.288547,24.931739 46.28905,24.878909 C 46.289553,24.826079 50.992275,24.782855 56.739544,24.782855 L 67.189139,24.782855 L 67.106282,25.775416 C 67.060732,26.321325 66.760125,30.975155 66.438279,36.117263 C 66.116432,41.25937 65.817966,45.826751 65.775015,46.267 L 65.696936,47.067453 L 61.277042,47.036732 C 58.846103,47.019835 54.095569,46.990449 50.720305,46.97143 z"
     id="path2436"
     style="fill:#000000;fill-opacity:0.19607843;stroke:none;stroke-width:1.5;stroke-miterlimit:4;stroke-dasharray:none;stroke-opacity:1" />
  <path
     d="M 32.422887,46.820445 C 27.57353,46.783336 23.571312,46.719219 23.529071,46.677962 C 23.486832,46.636704 23.836378,41.744665 24.30584,35.806767 C 24.775297,29.868871 25.159405,24.930154 25.159405,24.831844 C 25.159405,24.680097 26.734127,24.658491 35.584438,24.68881 C 41.318205,24.708454 46.043436,24.757686 46.08495,24.798218 C 46.126461,24.838749 45.762456,29.838376 45.276046,35.908499 L 44.391662,46.945086 L 42.815786,46.916499 C 41.949051,46.900774 37.272247,46.85755 32.422888,46.820443 L 32.422887,46.820445 z"
     id="path2438"
     style="fill:#000000;fill-opacity:0.19607843;stroke:none;stroke-width:1.5;stroke-miterlimit:4;stroke-dasharray:none;stroke-opacity:1" />
  <path
     d="M 21.757546,68.163668 C 21.800065,67.82866 22.196207,62.88632 22.637859,57.180695 C 23.079513,51.475069 23.449047,46.805892 23.459044,46.804744 C 23.740857,46.772404 44.301652,46.975758 44.334152,47.01121 C 44.36025,47.03968 43.990317,51.932928 43.512078,57.885094 L 42.642553,68.707211 L 32.161391,68.739994 L 21.680231,68.772787 L 21.757546,68.163668 z"
     id="path2440"
     style="fill:#000000;fill-opacity:0.19607843;stroke:none;stroke-width:1.5;stroke-miterlimit:4;stroke-dasharray:none;stroke-opacity:1" />
  <path
     d="M 5.6336284,46.602823 C 3.3238752,46.574931 2.5817817,46.527606 2.5823015,46.408236 C 2.5826769,46.321486 2.9961781,41.49692 3.5011873,35.686981 C 4.0061937,29.877041 4.4193865,24.99006 4.4193865,24.827024 L 4.4193865,24.530591 L 14.691217,24.617895 C 20.340723,24.665912 24.980894,24.719565 25.002708,24.737122 C 25.041164,24.768071 23.538323,44.288122 23.37352,45.898308 L 23.291599,46.698759 L 15.988615,46.669221 C 11.971981,46.652972 7.3122359,46.623095 5.6336284,46.602823 z"
     id="path2442"
     style="fill:#000000;fill-opacity:0.19607843;stroke:none;stroke-width:1.5;stroke-miterlimit:4;stroke-dasharray:none;stroke-opacity:1" />
  <path
     d="M 35.606222,24.657015 C 29.884517,24.63855 25.203123,24.573834 25.203123,24.513199 C 25.203123,24.452564 25.587086,19.546466 26.056374,13.610759 C 26.525663,7.6750513 26.909624,2.6821564 26.909624,2.5154382 L 26.909624,2.2123151 L 37.411177,2.2123151 L 47.912728,2.2123151 L 47.912728,2.6617648 C 47.912728,2.908965 47.528766,7.8714477 47.059478,13.689505 C 46.590189,19.507562 46.206226,24.376978 46.206226,24.510426 C 46.206226,24.643875 46.161922,24.739001 46.107774,24.721822 C 46.053624,24.704644 41.327927,24.675478 35.606222,24.657015 z"
     id="path2444"
     style="fill:#000000;fill-opacity:0.19607843;stroke:none;stroke-width:1.5;stroke-miterlimit:4;stroke-dasharray:none;stroke-opacity:1" />
  <path
     d="M 0.70662191,67.763398 C 0.7537975,67.252709 1.1852419,62.310716 1.665386,56.781189 L 2.5383721,46.727505 L 12.906819,46.769953 C 18.609468,46.793302 23.282135,46.822119 23.290527,46.833992 C 23.298915,46.845869 22.932623,51.552634 22.476536,57.293478 C 22.020448,63.034325 21.644501,67.947503 21.641093,68.211651 L 21.634896,68.691923 L 11.127872,68.691923 L 0.62084524,68.691923 L 0.70662191,67.763398 z"
     id="path4656"
     style="opacity:0.53899997;fill:url(#Strips1_2);fill-opacity:1;fill-rule:nonzero;stroke:none;stroke-width:1.5;stroke-miterlimit:4;stroke-dasharray:none;stroke-opacity:1" />
  <path
     d="M 4.5730127,23.540994 C 4.7097934,22.336025 6.3957955,2.8467004 6.3957955,2.4704911 C 6.3957955,2.249594 8.0511109,2.2069029 16.616007,2.2069029 L 26.836224,2.2069029 L 26.730759,3.1137211 C 26.585497,4.362887 25.104886,23.421455 25.104886,24.042173 L 25.104886,24.543266 L 14.782058,24.543266 L 4.4592289,24.543266 L 4.5730127,23.540994 z"
     id="path2403"
     style="opacity:1;fill:#000000;fill-opacity:0.19607843;fill-rule:nonzero;stroke:none;stroke-width:3;stroke-miterlimit:4;stroke-dasharray:none;stroke-opacity:1" />
  <path
     d="M 46.38724,23.918266 C 46.445334,23.472016 46.840977,18.596675 47.266451,13.084175 C 47.691918,7.5716757 48.080842,2.8681529 48.130713,2.6319029 L 48.221386,2.2023575 L 58.433052,2.2023575 L 68.64472,2.2023575 L 68.541749,3.2046301 C 68.48512,3.7558801 68.185533,8.2875847 67.876002,13.275085 C 67.566469,18.262585 67.26158,22.880198 67.19847,23.536448 L 67.083726,24.729631 L 56.682675,24.729631 L 46.281625,24.729631 L 46.38724,23.918266 z"
     id="path2405"
     style="opacity:0.53899997;fill:url(#Strips1_2);fill-opacity:1;fill-rule:nonzero;stroke:none;stroke-width:3;stroke-miterlimit:4;stroke-dasharray:none;stroke-opacity:1" />
  <path
     d="M 69.743765,27.543394 L 67.534324,25.29501 L 68.258964,14.227963 C 68.657524,8.1410894 69.037805,3.1067277 69.104038,3.0404955 C 69.170279,2.9742633 70.178909,4.0756369 71.345455,5.4879954 C 72.77952,7.2242385 73.467331,8.2182223 73.469176,8.5570547 C 73.474319,9.5026826 72.10246,29.642527 72.027817,29.717173 C 71.986784,29.758209 70.958957,28.780008 69.743765,27.543396 L 69.743765,27.543394 z"
     id="path2407"
     style="opacity:0.60966546;fill:url(#Strips1_3);fill-opacity:1;fill-rule:nonzero;stroke:none;stroke-width:3;stroke-miterlimit:4;stroke-dasharray:none;stroke-opacity:1" />
  <path
     d="M 4.4581023,71.275287 L 1.5665236,69.280541 L 12.052277,69.280541 L 22.538028,69.280541 L 25.025896,71.134745 L 27.513753,72.98895 L 22.543315,73.111334 C 19.809563,73.178646 15.272646,73.241892 12.461271,73.25188 L 7.3496813,73.270043 L 4.4581023,71.275287 z"
     id="path2409"
     style="opacity:0.61710038;fill:url(#Strips1_3);fill-opacity:1;fill-rule:nonzero;stroke:none;stroke-width:3;stroke-miterlimit:4;stroke-dasharray:none;stroke-opacity:1" />
  <path
     d="M 60.875,56.65625 C 59.055936,56.713207 57.237619,57.277148 55.6875,58.375 C 51.551141,61.304525 50.857611,67.074341 54.09375,71.09375 C 57.328037,75.110853 63.273105,75.989754 67.40625,73.0625 C 67.417589,73.053048 67.428048,73.042589 67.4375,73.03125 C 67.450855,73.01202 67.46138,72.990972 67.46875,72.96875 C 67.485439,72.939953 67.496073,72.908051 67.5,72.875 C 67.496073,72.841949 67.485439,72.810047 67.46875,72.78125 C 67.46138,72.759028 67.450855,72.73798 67.4375,72.71875 L 66.46875,71.375 C 66.459298,71.363661 66.448839,71.353202 66.4375,71.34375 C 66.41827,71.330395 66.397222,71.31987 66.375,71.3125 C 66.346203,71.295811 66.314301,71.285177 66.28125,71.28125 C 66.248199,71.285177 66.216297,71.295811 66.1875,71.3125 C 66.165278,71.31987 66.14423,71.330395 66.125,71.34375 C 62.967249,73.580191 58.305376,72.853806 55.78125,69.71875 C 53.254551,66.580493 53.806901,62.36434 56.96875,60.125 C 60.127352,57.88796 64.788857,58.584293 67.3125,61.71875 C 68.166284,62.779183 68.544907,63.900183 68.6875,65.09375 L 66.875,63.96875 C 66.864594,63.968084 66.854156,63.968084 66.84375,63.96875 C 66.814953,63.952061 66.783051,63.941427 66.75,63.9375 C 66.716949,63.941427 66.685047,63.952061 66.65625,63.96875 C 66.634028,63.97612 66.61298,63.986645 66.59375,64 C 66.582411,64.009452 66.571952,64.019911 66.5625,64.03125 C 66.551161,64.040702 66.540702,64.051161 66.53125,64.0625 L 65.65625,65.5 C 65.655584,65.510406 65.655584,65.520844 65.65625,65.53125 C 65.639561,65.560047 65.628927,65.591949 65.625,65.625 C 65.628927,65.658051 65.639561,65.689953 65.65625,65.71875 C 65.66362,65.740972 65.674145,65.76202 65.6875,65.78125 C 65.696952,65.792589 65.707411,65.803048 65.71875,65.8125 C 65.728202,65.823839 65.738661,65.834298 65.75,65.84375 L 69.40625,68.0625 L 69.90625,68.375 C 69.916656,68.375666 69.927094,68.375666 69.9375,68.375 C 69.966297,68.391689 69.998199,68.402323 70.03125,68.40625 C 70.064301,68.402323 70.096203,68.391689 70.125,68.375 C 70.147222,68.36763 70.16827,68.357105 70.1875,68.34375 L 70.65625,67.96875 L 74,65.09375 C 74.011339,65.084298 74.021798,65.073839 74.03125,65.0625 C 74.044605,65.04327 74.05513,65.022222 74.0625,65 C 74.079189,64.971203 74.089823,64.939301 74.09375,64.90625 C 74.089823,64.873199 74.079189,64.841297 74.0625,64.8125 C 74.05513,64.790278 74.044605,64.76923 74.03125,64.75 L 72.96875,63.46875 C 72.959298,63.457411 72.948839,63.446952 72.9375,63.4375 C 72.928048,63.426161 72.917589,63.415702 72.90625,63.40625 C 72.877453,63.389561 72.845551,63.378927 72.8125,63.375 C 72.743989,63.368517 72.675919,63.391208 72.625,63.4375 L 70.8125,65 C 70.638522,63.357341 70.123997,61.771047 69,60.375 C 67.383298,58.366996 65.087342,57.114779 62.6875,56.75 C 62.087696,56.658829 61.481355,56.637264 60.875,56.65625 z"
     id="path4709"
     style="fill:#ffffff;fill-opacity:1;fill-rule:nonzero;stroke:none;stroke-width:1.66455364;stroke-miterlimit:4;stroke-opacity:1" />
  <path
     d="M 66.762256,72.205988 C 63.11539,74.788836 57.818757,73.982596 54.939413,70.406346 C 52.060069,66.830096 52.682986,61.831408 56.329851,59.248561 C 59.976716,56.665714 65.27335,57.471953 68.152693,61.048203 C 69.582989,62.824683 70.168849,64.794296 69.910985,66.959441 M 66.318182,64.909091 L 69.954546,67.136364 L 73.318182,64.272727"
     id="path4695"
     style="fill:none;fill-opacity:0.19607843;fill-rule:nonzero;stroke:#000000;stroke-width:1.66455364;stroke-miterlimit:4;stroke-opacity:1" />
  <path
     d="M 75.960228,3.8688755 L 76.454369,2.3434849 C 77.593038,2.7445405 78.420186,3.0918709 78.935814,3.3854771 C 78.799743,2.0892677 78.728128,1.1976671 78.72097,0.71067238 L 80.278587,0.71067238 C 80.257098,1.4196721 80.174741,2.307692 80.031517,3.3747349 C 80.769142,3.0023528 81.614193,2.6586031 82.566673,2.3434849 L 83.060814,3.8688755 C 82.151302,4.1696693 81.259701,4.3701899 80.386009,4.470438 C 80.822853,4.8500072 81.438737,5.5267643 82.233665,6.5007114 L 80.944603,7.4137974 C 80.529233,6.848052 80.038674,6.078196 79.472923,5.1042271 C 78.942972,6.1140033 78.477477,6.8838593 78.076439,7.4137974 L 76.808861,6.5007114 C 77.639588,5.4766342 78.233988,4.799877 78.592064,4.470438 C 77.668233,4.291414 76.790956,4.0908933 75.960228,3.8688755 L 75.960228,3.8688755 z"
     id="text2411"
     style="font-size:22px;font-style:normal;font-weight:normal;fill:#000000;fill-opacity:1;stroke:none;stroke-width:1px;stroke-linecap:butt;stroke-linejoin:miter;stroke-opacity:1;font-family:Bitstream Vera Sans" />
</svg>
