<?xml version="1.0" encoding="UTF-8" standalone="no"?>
<!-- Created with Inkscape (http://www.inkscape.org/) -->
<svg
   xmlns:dc="http://purl.org/dc/elements/1.1/"
   xmlns:cc="http://creativecommons.org/ns#"
   xmlns:rdf="http://www.w3.org/1999/02/22-rdf-syntax-ns#"
   xmlns:svg="http://www.w3.org/2000/svg"
   xmlns="http://www.w3.org/2000/svg"
   xmlns:sodipodi="http://sodipodi.sourceforge.net/DTD/sodipodi-0.dtd"
   xmlns:inkscape="http://www.inkscape.org/namespaces/inkscape"
   version="1.0"
   width="84"
   height="84"
   id="svg2"
   sodipodi:version="0.32"
   inkscape:version="0.46"
   sodipodi:docname="shift-corners-cw.svg"
   inkscape:output_extension="org.inkscape.output.svg.inkscape">
  <metadata
     id="metadata31">
    <rdf:RDF>
      <cc:Work
         rdf:about="">
        <dc:format>image/svg+xml</dc:format>
        <dc:type
           rdf:resource="http://purl.org/dc/dcmitype/StillImage" />
      </cc:Work>
    </rdf:RDF>
  </metadata>
  <sodipodi:namedview
     inkscape:window-height="974"
     inkscape:window-width="1280"
     inkscape:pageshadow="2"
     inkscape:pageopacity="0.0"
     guidetolerance="10.0"
     gridtolerance="10.0"
     objecttolerance="10.0"
     borderopacity="1.0"
     bordercolor="#666666"
     pagecolor="#ffffff"
     id="base"
     showgrid="false"
     inkscape:zoom="11"
     inkscape:cx="28.776243"
     inkscape:cy="61.057917"
     inkscape:window-x="-8"
     inkscape:window-y="-8"
     inkscape:current-layer="svg2" />
  <defs
     id="defs4">
    <inkscape:perspective
       sodipodi:type="inkscape:persp3d"
       inkscape:vp_x="0 : 42 : 1"
       inkscape:vp_y="0 : 1000 : 0"
       inkscape:vp_z="84 : 42 : 1"
       inkscape:persp3d-origin="42 : 28 : 1"
       id="perspective33" />
    <pattern
       patternUnits="userSpaceOnUse"
       width="3"
       height="1"
       patternTransform="matrix(0.4558215,0.554687,-0.554687,0.4558215,0,0)"
       id="Strips1_2"
       inkscape:stockid="Stripes 1:2">
      <rect
         style="fill:black;stroke:none"
         x="0"
         y="-0.5"
         width="1"
         height="2"
         id="rect3950" />
    </pattern>
  </defs>
  <path
     d="M 79.701172,82.299997 L 64.301024,68.87966 L 0.77532033,68.669155 M 68.792748,2.1846726 L 6.3364723,2.1846726 L 0.56144242,68.676335 L 20.239425,82.096625 L 79.4873,82.299997 L 83.551257,20.485135 L 68.665222,2.4271405 L 64.387383,68.918802 L 0.60371961,68.798219 M 67.682311,24.790277 L 4.3019692,24.547809 M 2.644133,46.612397 L 65.769425,47.097334 M 21.645483,68.798219 L 26.874044,2.3619877 M 48.043332,2.2407537 L 42.687246,68.919453 M 74.441186,77.638198 L 78.793004,14.80868 M 73.835431,8.8278002 L 69.563315,73.324287 M 13.643239,77.66851 L 74.37742,77.66851 M 69.292329,73.233363 L 7.9523986,73.672835 M 21.779643,68.712474 L 39.482807,82.005521 M 42.94647,68.83443 L 58.340525,82.005521 M 65.780986,47.248472 L 80.918474,62.126928 M 67.320391,24.930788 L 82.329595,39.565335"
     id="path2404"
     style="fill:none;fill-rule:evenodd;stroke:#000000;stroke-width:1.00063336;stroke-linecap:butt;stroke-linejoin:round;stroke-miterlimit:4;stroke-dasharray:none;stroke-opacity:1" />
  <path
     d="M 10.933187,75.722658 L 8.6434733,74.148851 L 12.656098,74.066904 C 14.863036,74.02184 19.386849,73.976454 22.709015,73.96605 L 28.749322,73.947136 L 30.765808,75.459992 C 31.874876,76.292063 32.878225,77.046566 32.995475,77.136666 C 33.163577,77.265841 31.095421,77.30006 23.215774,77.298472 L 13.222892,77.296463 L 10.933187,75.722658 z"
     id="path2406"
     style="fill:#000000;fill-opacity:0.31372549;stroke:none;stroke-width:1.5;stroke-miterlimit:4;stroke-dasharray:none;stroke-opacity:1" />
  <path
     d="M 31.039306,75.663294 L 28.852295,74.020338 L 30.97039,73.937273 C 32.135341,73.891594 36.637457,73.846209 40.975093,73.836421 L 48.861699,73.818623 L 50.761227,75.449258 C 51.805963,76.346107 52.719675,77.13279 52.791693,77.197446 C 52.866522,77.264623 48.702492,77.313122 43.074476,77.310621 L 33.226317,77.30625 L 31.039306,75.663294 z"
     id="path2408"
     style="fill:#000000;fill-opacity:0.31372549;stroke:none;stroke-width:1.5;stroke-miterlimit:4;stroke-dasharray:none;stroke-opacity:1" />
  <path
     d="M 25.08243,71.198531 C 23.635399,70.117085 22.472595,69.211646 22.498418,69.186449 C 22.524246,69.161254 27.292177,69.184352 33.093823,69.237784 L 43.642267,69.334933 L 45.792096,71.161899 C 46.974499,72.166728 47.893578,72.999667 47.834493,73.01287 C 47.775404,73.026073 43.223989,73.065663 37.720232,73.100843 L 27.713402,73.164808 L 25.08243,71.198531 z"
     id="path2410"
     style="fill:#000000;fill-opacity:0.31372549;stroke:none;stroke-width:1.5;stroke-miterlimit:4;stroke-dasharray:none;stroke-opacity:1" />
  <path
     d="M 36.879664,80.010588 C 35.553023,79.007216 34.441746,78.161265 34.410158,78.130699 C 34.378576,78.100131 38.728286,78.075123 44.076189,78.075123 L 53.799649,78.075123 L 55.780493,79.768877 C 56.869965,80.700444 57.852162,81.547644 57.963172,81.651542 C 58.13658,81.813849 56.83603,81.840063 48.728369,81.837679 L 39.29174,81.834903 L 36.879664,80.010588 z"
     id="path2412"
     style="fill:#000000;fill-opacity:0.31372549;stroke:none;stroke-width:1.5;stroke-miterlimit:4;stroke-dasharray:none;stroke-opacity:1" />
  <path
     d="M 28.801329,81.708878 L 19.635445,81.639752 L 17.119993,79.912846 C 15.736496,78.963043 14.604545,78.16123 14.604545,78.131037 C 14.604545,78.10084 19.023811,78.077089 24.425136,78.078251 L 34.245728,78.080364 L 36.588886,79.837408 C 37.877624,80.803783 38.990968,81.650032 39.062986,81.71796 C 39.143057,81.793482 38.955639,81.829139 38.580572,81.809736 C 38.243224,81.792286 33.842567,81.7469 28.801329,81.708879 L 28.801329,81.708878 z"
     id="path2416"
     style="fill:#000000;fill-opacity:0.31372549;stroke:none;stroke-width:1.5;stroke-miterlimit:4;stroke-dasharray:none;stroke-opacity:1" />
  <path
     d="M 65.654618,81.86773 L 57.996955,81.831846 L 55.937401,80.069016 C 54.804649,79.09946 53.818923,78.252764 53.746905,78.18747 C 53.671111,78.118753 58.114678,78.06875 64.297626,78.06875 L 74.979288,78.06875 L 77.216961,80.018653 L 79.454637,81.968554 L 76.383458,81.936084 C 74.694303,81.918231 69.866335,81.887471 65.654618,81.867732 L 65.654618,81.86773 z"
     id="path2418"
     style="fill:#000000;fill-opacity:0.31372549;stroke:none;stroke-width:1.5;stroke-miterlimit:4;stroke-dasharray:none;stroke-opacity:1" />
  <path
     d="M 50.715202,75.608693 L 48.697822,73.894123 L 49.138552,73.804028 C 49.380948,73.754474 54.15078,73.698387 59.738193,73.679393 L 69.897095,73.644853 L 71.58053,75.114248 C 72.506409,75.922417 73.456575,76.747598 73.692006,76.947988 L 74.120061,77.312329 L 63.426325,77.317795 L 52.732579,77.323262 L 50.715202,75.608693 z"
     id="path2420"
     style="fill:#000000;fill-opacity:0.31372549;stroke:none;stroke-width:1.5;stroke-miterlimit:4;stroke-dasharray:none;stroke-opacity:1" />
  <path
     d="M 71.950996,75.875394 L 69.83551,74.034598 L 69.908549,73.426944 C 69.948712,73.092736 70.278863,68.234044 70.642204,62.629856 L 71.302823,52.440419 L 73.423121,54.50908 L 75.543431,56.577749 L 74.836182,66.917374 C 74.447205,72.604169 74.114889,77.36032 74.097702,77.486598 C 74.075634,77.648808 73.44556,77.17591 71.950996,75.875397 L 71.950996,75.875394 z"
     id="path2422"
     style="fill:#000000;fill-opacity:0.47058824;stroke:none;stroke-width:1.5;stroke-miterlimit:4;stroke-dasharray:none;stroke-opacity:1" />
  <path
     d="M 77.829498,80.961217 C 77.14524,80.357876 76.170584,79.501147 75.663578,79.057377 L 74.741779,78.250521 L 75.465374,67.868642 C 75.863367,62.158604 76.22074,57.45578 76.25954,57.417921 C 76.29834,57.380058 77.271425,58.269771 78.421958,59.395051 L 80.513821,61.441018 L 79.83662,71.708973 C 79.464169,77.356353 79.140124,81.995219 79.116526,82.017567 C 79.092916,82.039919 78.513755,81.564559 77.829498,80.961217 z"
     id="path2424"
     style="fill:#000000;fill-opacity:0.47058824;stroke:none;stroke-width:1.5;stroke-miterlimit:4;stroke-dasharray:none;stroke-opacity:1" />
  <path
     d="M 78.307859,59.880107 L 76.175583,57.794769 L 76.911294,47.067886 C 77.315958,41.168093 77.686231,35.991905 77.734155,35.565239 L 77.821281,34.789488 L 79.910758,36.842758 L 82.000236,38.896038 L 81.259839,50.057547 C 80.852626,56.196378 80.501592,61.386993 80.479773,61.592249 C 80.442779,61.940283 80.296374,61.824866 78.307844,59.880106 L 78.307859,59.880107 z"
     id="path2426"
     style="fill:#000000;fill-opacity:0.47058824;stroke:none;stroke-width:1.5;stroke-miterlimit:4;stroke-dasharray:none;stroke-opacity:1" />
  <path
     d="M 73.334368,55.019842 L 71.252471,52.973875 L 71.993006,41.946841 C 72.400301,35.881973 72.73536,30.677984 72.737592,30.382421 L 72.741659,29.845033 L 74.928997,31.996133 L 77.116336,34.147232 L 76.316906,45.557133 C 75.877232,51.832583 75.494705,56.989264 75.466862,57.016424 C 75.43902,57.043589 74.479401,56.145121 73.334368,55.019842 z"
     id="path2428"
     style="fill:#000000;fill-opacity:0.47058824;stroke:none;stroke-width:1.5;stroke-miterlimit:4;stroke-dasharray:none;stroke-opacity:1" />
  <path
     d="M 68.327428,50.136251 L 66.081274,47.939912 L 66.789129,36.651617 C 67.178453,30.44306 67.537962,25.256561 67.588036,25.126067 C 67.661032,24.935834 68.122016,25.322358 69.91358,27.075969 L 72.148071,29.263135 L 71.397075,40.559121 C 70.984032,46.771912 70.629759,51.96254 70.609816,52.093848 C 70.584125,52.263125 69.91999,51.693506 68.327428,50.136249 L 68.327428,50.136251 z"
     id="path2430"
     style="fill:#000000;fill-opacity:0.47058824;stroke:none;stroke-width:1.5;stroke-miterlimit:4;stroke-dasharray:none;stroke-opacity:1" />
  <path
     d="M 74.839894,32.501505 L 72.746433,30.450746 L 73.421526,20.297806 C 73.792847,14.713689 74.115417,9.8836176 74.138337,9.5643136 L 74.180034,8.9837593 L 76.332471,11.585961 L 78.484899,14.188169 L 77.782846,24.370216 C 77.396721,29.970343 77.047618,34.552265 77.007067,34.552265 C 76.966531,34.552265 75.991294,33.629422 74.839894,32.501505 z"
     id="path2432"
     style="fill:#000000;fill-opacity:0.47058824;stroke:none;stroke-width:1.5;stroke-miterlimit:4;stroke-dasharray:none;stroke-opacity:1" />
  <path
     d="M 79.84121,37.320552 L 77.732615,35.258342 L 78.42936,25.258249 C 78.812563,19.758193 79.148049,15.236729 79.174885,15.210549 C 79.201694,15.184371 80.131555,16.259311 81.241192,17.599306 L 83.258707,20.035663 L 83.186882,20.729557 C 83.147381,21.111195 82.86762,25.296359 82.565187,30.029914 C 82.262741,34.763471 82.00057,38.804315 81.982554,39.009571 C 81.952204,39.355525 81.795915,39.232256 79.84121,37.320555 L 79.84121,37.320552 z"
     id="path2434"
     style="fill:#000000;fill-opacity:0.47058824;stroke:none;stroke-width:1.5;stroke-miterlimit:4;stroke-dasharray:none;stroke-opacity:1" />
  <path
     d="M 50.720305,46.97143 L 44.58346,46.936847 L 44.583581,46.521879 C 44.583648,46.293646 44.9672,41.352223 45.435918,35.540937 C 45.904637,29.729652 46.288547,24.931739 46.28905,24.878909 C 46.289553,24.826079 50.992275,24.782855 56.739544,24.782855 L 67.189139,24.782855 L 67.106282,25.775416 C 67.060732,26.321325 66.760125,30.975155 66.438279,36.117263 C 66.116432,41.25937 65.817966,45.826751 65.775015,46.267 L 65.696936,47.067453 L 61.277042,47.036732 C 58.846103,47.019835 54.095569,46.990449 50.720305,46.97143 z"
     id="path2436"
     style="fill:#000000;fill-opacity:0.19607843;stroke:none;stroke-width:1.5;stroke-miterlimit:4;stroke-dasharray:none;stroke-opacity:1" />
  <path
     d="M 32.422887,46.820445 C 27.57353,46.783336 23.571312,46.719219 23.529071,46.677962 C 23.486832,46.636704 23.836378,41.744665 24.30584,35.806767 C 24.775297,29.868871 25.159405,24.930154 25.159405,24.831844 C 25.159405,24.680097 26.734127,24.658491 35.584438,24.68881 C 41.318205,24.708454 46.043436,24.757686 46.08495,24.798218 C 46.126461,24.838749 45.762456,29.838376 45.276046,35.908499 L 44.391662,46.945086 L 42.815786,46.916499 C 41.949051,46.900774 37.272247,46.85755 32.422888,46.820443 L 32.422887,46.820445 z"
     id="path2438"
     style="fill:#000000;fill-opacity:0.19607843;stroke:none;stroke-width:1.5;stroke-miterlimit:4;stroke-dasharray:none;stroke-opacity:1" />
  <path
     d="M 21.757546,68.163668 C 21.800065,67.82866 22.196207,62.88632 22.637859,57.180695 C 23.079513,51.475069 23.449047,46.805892 23.459044,46.804744 C 23.740857,46.772404 44.301652,46.975758 44.334152,47.01121 C 44.36025,47.03968 43.990317,51.932928 43.512078,57.885094 L 42.642553,68.707211 L 32.161391,68.739994 L 21.680231,68.772787 L 21.757546,68.163668 z"
     id="path2440"
     style="fill:#000000;fill-opacity:0.19607843;stroke:none;stroke-width:1.5;stroke-miterlimit:4;stroke-dasharray:none;stroke-opacity:1" />
  <path
     d="M 5.6336284,46.602823 C 3.3238752,46.574931 2.5817817,46.527606 2.5823015,46.408236 C 2.5826769,46.321486 2.9961781,41.49692 3.5011873,35.686981 C 4.0061937,29.877041 4.4193865,24.99006 4.4193865,24.827024 L 4.4193865,24.530591 L 14.691217,24.617895 C 20.340723,24.665912 24.980894,24.719565 25.002708,24.737122 C 25.041164,24.768071 23.538323,44.288122 23.37352,45.898308 L 23.291599,46.698759 L 15.988615,46.669221 C 11.971981,46.652972 7.3122359,46.623095 5.6336284,46.602823 z"
     id="path2442"
     style="fill:#000000;fill-opacity:0.19607843;stroke:none;stroke-width:1.5;stroke-miterlimit:4;stroke-dasharray:none;stroke-opacity:1" />
  <path
     d="M 35.606222,24.657015 C 29.884517,24.63855 25.203123,24.573834 25.203123,24.513199 C 25.203123,24.452564 25.587086,19.546466 26.056374,13.610759 C 26.525663,7.6750513 26.909624,2.6821564 26.909624,2.5154382 L 26.909624,2.2123151 L 37.411177,2.2123151 L 47.912728,2.2123151 L 47.912728,2.6617648 C 47.912728,2.908965 47.528766,7.8714477 47.059478,13.689505 C 46.590189,19.507562 46.206226,24.376978 46.206226,24.510426 C 46.206226,24.643875 46.161922,24.739001 46.107774,24.721822 C 46.053624,24.704644 41.327927,24.675478 35.606222,24.657015 z"
     id="path2444"
     style="fill:#000000;fill-opacity:0.19607843;stroke:none;stroke-width:1.5;stroke-miterlimit:4;stroke-dasharray:none;stroke-opacity:1" />
  <path
     d="M 0.70662191,67.763398 C 0.7537975,67.252709 1.1852419,62.310716 1.665386,56.781189 L 2.5383721,46.727505 L 12.906819,46.769953 C 18.609468,46.793302 23.282135,46.822119 23.290527,46.833992 C 23.298915,46.845869 22.932623,51.552634 22.476536,57.293478 C 22.020448,63.034325 21.644501,67.947503 21.641093,68.211651 L 21.634896,68.691923 L 11.127872,68.691923 L 0.62084524,68.691923 L 0.70662191,67.763398 z"
     id="path4656"
     style="opacity:0.53903348;fill:url(#Strips1_2);fill-opacity:1;fill-rule:nonzero;stroke:none;stroke-width:1.5;stroke-miterlimit:4;stroke-dasharray:none;stroke-opacity:1" />
  <path
     d="M 16.477273,11.477272 C 37.102273,7.2272728 56.727273,11.852272 56.727273,11.852272 M 59.477273,18.602272 C 62.977273,37.227272 57.852273,54.102272 57.852273,54.102272 M 48.977273,58.602272 C 19.227273,50.602272 15.227273,20.227272 15.227273,20.227272 M 54.977273,50.477272 L 57.789773,54.289772 L 61.852273,52.227272 M 53.414773,14.727272 L 56.789773,11.852272 L 55.039773,8.1647728 M 12.227273,23.352272 L 15.289773,20.289772 L 19.477273,21.914772"
     id="path3178"
     style="fill:none;fill-rule:evenodd;stroke:#ffffff;stroke-width:3;stroke-linecap:butt;stroke-linejoin:miter;stroke-miterlimit:4;stroke-dasharray:none;stroke-opacity:1" />
  <path
     style="fill:none;fill-rule:evenodd;stroke:#000000;stroke-width:2;stroke-linecap:butt;stroke-linejoin:miter;stroke-miterlimit:4;stroke-dasharray:none;stroke-opacity:1"
     id="path4736"
     d="M 16.477273,11.477272 C 37.102273,7.2272728 56.727273,11.852272 56.727273,11.852272 M 59.477273,18.602272 C 62.977273,37.227272 57.852273,54.102272 57.852273,54.102272 M 48.977273,58.602272 C 19.227273,50.602272 15.227273,20.227272 15.227273,20.227272 M 54.977273,50.477272 L 57.789773,54.289772 L 61.852273,52.227272 M 53.414773,14.727272 L 56.789773,11.852272 L 55.039773,8.1647728 M 12.227273,23.352272 L 15.289773,20.289772 L 19.477273,21.914772" />
</svg>
