<?xml version="1.0" encoding="UTF-8" standalone="no"?>
<!-- Created with Inkscape (http://www.inkscape.org/) -->
<svg
   xmlns:svg="http://www.w3.org/2000/svg"
   xmlns="http://www.w3.org/2000/svg"
   version="1.0"
   width="64"
   height="64"
   id="svg2">
  <defs
     id="defs4" />
  <g
     transform="translate(-689.04643,-566.63182)"
     id="layer1">
    <path
       d="M 700.35189,581.1907 L 726.56357,579.58723 L 752.77525,577.98376 L 745.56103,572.45182 L 738.3468,566.91988 L 713.97878,568.44318 L 689.61072,569.96647 L 689.69091,592.17441 L 689.77106,614.38232 L 700.35189,629.13414 L 726.56357,626.9695 L 752.77525,624.80483 L 752.77525,601.3943 L 752.77525,577.98376 M 689.61072,569.80614 L 694.90117,575.57858 L 700.19159,581.35103 C 700.19159,581.35103 700.19159,598.01902 700.19159,605.16244 C 700.19159,612.30586 700.19159,628.97381 700.19159,628.97381 M 752.77522,601.39426 L 700.35193,605.2426 M 713.97878,568.36301 L 726.32308,579.58723 M 726.48342,579.58723 L 726.48342,626.8893 M 694.90117,575.57858 L 694.74083,621.27719 M 700.19159,605.24257 L 689.61072,592.41492 M 694.90117,575.57855 L 745.56103,572.37165"
       id="path2413"
       style="fill:none;fill-rule:evenodd;stroke:#000000;stroke-width:1;stroke-linecap:butt;stroke-linejoin:round;stroke-miterlimit:4;stroke-dasharray:none;stroke-opacity:1" />
    <path
       d="M 740.1817,602.26585 C 746.70877,601.77238 752.21954,601.36432 752.42782,601.359 L 752.80661,601.34934 L 752.80661,589.73225 L 752.80661,578.1152 L 752.09119,578.11628 C 751.69768,578.11689 745.84609,578.45746 739.08757,578.8731 C 732.32905,579.28874 726.74252,579.6292 726.6731,579.62963 C 726.60365,579.6301 726.5468,584.93393 726.5468,591.41589 L 726.5468,603.20132 L 727.43057,603.18218 C 727.91662,603.17165 733.65466,602.75928 740.1817,602.26585 L 740.1817,602.26585 z"
       id="path3228"
       style="fill:#000000;fill-opacity:0.47058824;fill-rule:nonzero;stroke:none;stroke-width:1;stroke-linejoin:round;stroke-miterlimit:4;stroke-dasharray:none;stroke-opacity:1" />
    <path
       d="M 713.97404,604.19886 C 720.45483,603.70664 725.9277,603.29884 726.13598,603.29269 L 726.51477,603.28149 L 726.51477,591.49606 L 726.51477,579.71062 L 725.79936,579.71174 C 725.40588,579.71235 719.5921,580.05277 712.87988,580.46827 C 706.16768,580.88376 700.58115,581.22419 700.46541,581.2248 C 700.29907,581.22566 700.25497,583.72947 700.25497,593.17969 L 700.25497,605.1335 L 701.22291,605.11364 C 701.75525,605.10272 707.49329,604.69107 713.97404,604.19886 z"
       id="path3230"
       style="fill:#000000;fill-opacity:0.47058824;fill-rule:nonzero;stroke:none;stroke-width:1;stroke-linejoin:round;stroke-miterlimit:4;stroke-dasharray:none;stroke-opacity:1" />
    <path
       d="M 738.86349,578.35836 C 745.77872,577.928 751.47977,577.53276 751.53246,577.48007 C 751.58514,577.42738 750.29562,576.36868 748.66681,575.1274 C 746.16002,573.21702 745.62344,572.87642 745.17194,572.90878 C 744.87851,572.92976 739.56328,573.25506 733.36027,573.63155 C 727.15722,574.00807 721.83671,574.35399 721.53693,574.40029 C 720.99227,574.48445 720.99413,574.48664 723.52768,576.79222 C 724.92245,578.06147 726.11462,579.10915 726.17699,579.12039 C 726.2393,579.13163 731.94822,578.78869 738.86349,578.35836 L 738.86349,578.35836 z"
       id="path3232"
       style="fill:#000000;fill-opacity:0.19607843;fill-rule:nonzero;stroke:none;stroke-width:1;stroke-linejoin:round;stroke-miterlimit:4;stroke-dasharray:none;stroke-opacity:0.19607843" />
    <path
       d="M 712.77031,579.93791 C 719.71399,579.4949 725.41684,579.12589 725.44334,579.11788 C 725.4698,579.10987 724.34425,578.06158 722.94219,576.78834 C 720.70186,574.75386 720.32889,574.47798 719.86409,574.51178 C 719.57325,574.5329 714.22218,574.85906 707.97285,575.23663 C 701.72354,575.61419 696.38508,575.978 696.10961,576.04513 L 695.60872,576.16722 L 697.70872,578.46252 C 698.86375,579.72495 699.88451,580.7546 699.97709,580.75061 C 700.06967,580.74663 705.82664,580.38091 712.77031,579.93791 L 712.77031,579.93791 z"
       id="path3234"
       style="fill:#000000;fill-opacity:0.19607843;fill-rule:nonzero;stroke:none;stroke-width:1;stroke-linejoin:round;stroke-miterlimit:4;stroke-dasharray:none;stroke-opacity:0.19607843" />
    <path
       d="M 706.8599,574.33215 C 713.54663,573.90474 719.05596,573.51676 719.10282,573.46985 C 719.18441,573.38828 714.83884,569.34332 714.36558,569.06029 C 714.11341,568.90951 691.36256,570.24729 690.84476,570.44333 C 690.5666,570.54868 690.79589,570.86511 692.51138,572.74349 C 693.60544,573.94137 694.54594,574.96369 694.60139,575.01534 C 694.65687,575.06696 700.17317,574.75954 706.8599,574.33215 L 706.8599,574.33215 z"
       id="path3236"
       style="fill:#000000;fill-opacity:0.19607843;fill-rule:nonzero;stroke:none;stroke-width:1;stroke-linejoin:round;stroke-miterlimit:4;stroke-dasharray:none;stroke-opacity:0.19607843" />
    <path
       d="M 732.17675,572.71332 C 738.84269,572.27918 744.32193,571.91616 744.35285,571.90657 C 744.38377,571.89702 743.09593,570.88045 741.49101,569.64751 L 738.5729,567.40582 L 727.06744,568.12277 C 720.73938,568.51707 715.41317,568.86296 715.23135,568.8913 C 714.979,568.93063 715.44832,569.44091 717.21449,571.04739 C 718.48706,572.20487 719.64719,573.23089 719.79256,573.32729 C 719.97976,573.45153 723.5921,573.27244 732.17675,572.71332 L 732.17675,572.71332 z"
       id="path3238"
       style="fill:#000000;fill-opacity:0.19607843;fill-rule:nonzero;stroke:none;stroke-width:1;stroke-linejoin:round;stroke-miterlimit:4;stroke-dasharray:none;stroke-opacity:0.19607843" />
    <path
       d="M 699.7018,592.65332 L 699.7018,581.16794 L 697.56881,578.85352 C 696.39564,577.58064 695.41089,576.50757 695.38048,576.469 C 695.35009,576.43042 695.32693,581.46871 695.32909,587.66517 L 695.33297,598.93148 L 697.27667,601.28857 C 698.34577,602.58494 699.58125,604.00914 699.71361,604.14469 C 699.92236,604.35855 699.7018,602.61472 699.7018,592.65332 L 699.7018,592.65332 z"
       id="path3240"
       style="fill:#000000;fill-opacity:0.31372549;fill-rule:nonzero;stroke:none;stroke-width:1;stroke-linejoin:round;stroke-miterlimit:4;stroke-dasharray:none;stroke-opacity:1" />
    <path
       d="M 694.39457,595.38573 C 694.45863,593.76187 694.511,588.54615 694.511,583.79513 L 694.511,575.15696 L 692.30164,572.77517 L 690.09231,570.39338 L 690.09231,581.84414 L 690.09231,593.29498 L 692.04987,595.67665 C 693.12654,596.98659 694.4955,598.43071 694.56994,598.50764 C 694.64437,598.58459 694.33054,597.00956 694.39457,595.38573 L 694.39457,595.38573 z"
       id="path3242"
       style="fill:#000000;fill-opacity:0.31372549;fill-rule:nonzero;stroke:none;stroke-width:1;stroke-linejoin:round;stroke-miterlimit:4;stroke-dasharray:none;stroke-opacity:1" />
    <path
       d="M 690.4375,604.875 C 690.42631,604.88461 690.41586,604.89506 690.40625,604.90625 C 690.38237,604.92379 690.36129,604.94487 690.34375,604.96875 C 690.30805,605.01358 690.28632,605.06792 690.28125,605.125 L 690.125,606.09375 L 688.96875,612.09375 C 688.95014,612.16795 688.96136,612.24648 689,612.3125 C 689.01754,612.33638 689.03862,612.35746 689.0625,612.375 C 689.0985,612.40563 689.14139,612.42708 689.1875,612.4375 L 691.15625,612.8125 C 691.23045,612.83111 691.30898,612.81989 691.375,612.78125 C 691.39888,612.76371 691.41996,612.74263 691.4375,612.71875 C 691.46813,612.68275 691.48958,612.63986 691.5,612.59375 L 692.125,609.28125 C 692.28478,609.50489 692.47725,609.79498 692.9375,610.25 C 694.51665,611.81117 697.02416,613.77664 700.78125,615.375 C 708.00012,618.44608 719.92367,620.05948 738.40625,615.78125 L 736.96875,618.53125 C 736.95756,618.54086 736.94711,618.55131 736.9375,618.5625 C 736.90962,618.64628 736.92111,618.73816 736.96875,618.8125 C 736.98629,618.83638 737.00737,618.85746 737.03125,618.875 C 737.05076,618.88788 737.07174,618.89837 737.09375,618.90625 L 738.875,619.8125 C 738.88461,619.82369 738.89506,619.83414 738.90625,619.84375 C 739.01979,619.87895 739.14334,619.84189 739.21875,619.75 C 739.23163,619.73049 739.24212,619.70951 739.25,619.6875 L 742.0625,614.34375 L 742.53125,613.46875 C 742.57932,613.38116 742.57932,613.27509 742.53125,613.1875 C 742.51371,613.16362 742.49263,613.14254 742.46875,613.125 C 742.44924,613.11212 742.42826,613.10163 742.40625,613.09375 L 741.53125,612.625 L 736.15625,609.6875 C 736.01775,609.62552 735.85486,609.67982 735.78125,609.8125 L 734.84375,611.5625 C 734.79568,611.65009 734.79568,611.75616 734.84375,611.84375 C 734.86129,611.86763 734.88237,611.88871 734.90625,611.90625 C 734.92576,611.91913 734.94674,611.92962 734.96875,611.9375 L 737.53125,613.34375 C 719.62391,617.44001 708.42103,615.76689 701.84375,612.96875 C 698.39717,611.50249 696.14815,609.75758 694.78125,608.40625 C 694.64453,608.27109 694.66067,608.26021 694.59375,608.1875 L 697.125,608.625 C 697.2799,608.65712 697.43224,608.56017 697.46875,608.40625 L 697.8125,606.4375 C 697.83111,606.3633 697.81989,606.28477 697.78125,606.21875 C 697.76371,606.19487 697.74263,606.17379 697.71875,606.15625 C 697.68275,606.12562 697.63986,606.10417 697.59375,606.09375 L 691.625,605.0625 L 690.625,604.875 C 690.5642,604.85441 690.4983,604.85441 690.4375,604.875 L 690.4375,604.875 z"
       id="path3166"
       style="fill:#ffffff;fill-opacity:1;fill-rule:evenodd;stroke:none;stroke-width:2;stroke-linecap:butt;stroke-linejoin:miter;stroke-miterlimit:4;stroke-dasharray:none;stroke-opacity:1" />
    <path
       d="M 740.25361,614.12791 C 700.99579,623.99119 691.81611,606.80369 691.81611,606.80369 M 738.10517,619.10838 L 740.9372,613.73729 L 735.56611,610.8076 M 697.35728,607.36934 L 691.37597,606.32383 L 690.23752,612.33513"
       id="path2391"
       style="fill:none;fill-rule:evenodd;stroke:#000000;stroke-width:2;stroke-linecap:butt;stroke-linejoin:miter;stroke-miterlimit:4;stroke-dasharray:none;stroke-opacity:1" />
  </g>
</svg>
