<?xml version="1.0" encoding="UTF-8" standalone="no"?>
<!-- Created with Inkscape (http://www.inkscape.org/) -->
<svg
   xmlns:svg="http://www.w3.org/2000/svg"
   xmlns="http://www.w3.org/2000/svg"
   version="1.0"
   width="84"
   height="84"
   id="svg2">
  <defs
     id="defs4" />
  <path
     d="M 83.176828,5.43614 L 69.42136,20.442078 L 69.205598,82.341655 M 1.0608713,16.065331 L 1.0608713,76.922857 L 69.212956,82.550058 L 82.968379,63.375792 L 83.176828,5.6445389 L 19.818331,1.6846104 L 1.3093942,16.189594 L 69.461479,20.357929 L 69.337885,82.508863"
     id="path2389"
     style="fill:none;fill-rule:evenodd;stroke:#000000;stroke-width:1;stroke-linecap:butt;stroke-linejoin:round;stroke-miterlimit:4;stroke-dasharray:none;stroke-opacity:1" />
  <path
     d="M 24.230981,17.147344 L 23.982458,78.905281"
     id="path3334"
     style="fill:none;fill-rule:evenodd;stroke:#000000;stroke-width:1px;stroke-linecap:butt;stroke-linejoin:miter;stroke-opacity:1" />
  <path
     d="M 46.598041,80.52068 L 47.095087,19.011265"
     id="path3336"
     style="fill:none;fill-rule:evenodd;stroke:#000000;stroke-width:1px;stroke-linecap:butt;stroke-linejoin:miter;stroke-opacity:1" />
  <path
     d="M 69.337885,62.005725 L 1.2426144,56.911005"
     id="path3338"
     style="fill:none;fill-rule:evenodd;stroke:#000000;stroke-width:1px;stroke-linecap:butt;stroke-linejoin:miter;stroke-opacity:1" />
  <path
     d="M 1.118353,36.283606 L 69.462146,41.502587"
     id="path3340"
     style="fill:none;fill-rule:evenodd;stroke:#000000;stroke-width:1px;stroke-linecap:butt;stroke-linejoin:miter;stroke-opacity:1" />
  <path
     d="M 78.398616,10.561483 L 14.000124,6.3210616"
     id="path3348"
     style="fill:none;fill-rule:evenodd;stroke:#000000;stroke-width:1px;stroke-linecap:butt;stroke-linejoin:miter;stroke-opacity:1" />
  <path
     d="M 7.8698906,11.151731 L 73.976978,15.314489"
     id="path3350"
     style="fill:none;fill-rule:evenodd;stroke:#000000;stroke-width:1px;stroke-linecap:butt;stroke-linejoin:miter;stroke-opacity:1" />
  <path
     d="M 78.429685,69.803129 L 78.429685,10.623617"
     id="path3354"
     style="fill:none;fill-rule:evenodd;stroke:#000000;stroke-width:1px;stroke-linecap:butt;stroke-linejoin:miter;stroke-opacity:1" />
  <path
     d="M 73.883783,15.57854 L 74.33423,75.348295"
     id="path3358"
     style="fill:none;fill-rule:evenodd;stroke:#000000;stroke-width:1px;stroke-linecap:butt;stroke-linejoin:miter;stroke-opacity:1" />
  <path
     d="M 69.25,61.875 L 82.875,44.625"
     id="path3360"
     style="fill:none;fill-rule:evenodd;stroke:#000000;stroke-width:1px;stroke-linecap:butt;stroke-linejoin:miter;stroke-opacity:1" />
  <path
     d="M 69.375,41.25 L 82.875,26.25"
     id="path3362"
     style="fill:none;fill-rule:evenodd;stroke:#000000;stroke-width:1px;stroke-linecap:butt;stroke-linejoin:miter;stroke-opacity:1" />
  <path
     d="M 47.25,19 L 62.5,4.2500002"
     id="path3364"
     style="fill:none;fill-rule:evenodd;stroke:#000000;stroke-width:1px;stroke-linecap:butt;stroke-linejoin:miter;stroke-opacity:1" />
  <path
     d="M 24.375,17.5 L 39.375,2.8750002"
     id="path3366"
     style="fill:none;fill-rule:evenodd;stroke:#000000;stroke-width:1px;stroke-linecap:butt;stroke-linejoin:miter;stroke-opacity:1" />
  <path
     d="M 34.702248,59.358521 L 24.10381,58.555079 L 24.10381,48.349246 C 24.10381,38.716809 24.116715,38.143428 24.333498,38.143665 C 24.743116,38.144119 46.854251,39.8499 46.880951,39.883111 C 46.895181,39.900811 46.876795,44.477866 46.840101,50.054351 L 46.773379,60.193413 L 46.037036,60.177688 C 45.632041,60.169041 40.531388,59.800416 34.702248,59.358522 L 34.702248,59.358521 z"
     id="path3384"
     style="fill:#000000;fill-opacity:0.31372549;stroke:none;stroke-width:0.0625;stroke-miterlimit:4;stroke-dasharray:none;stroke-opacity:1" />
  <path
     d="M 12.124363,77.758081 C 6.3132689,77.266223 1.4553783,76.859927 1.3290502,76.855203 C 1.1124037,76.847103 1.0993627,76.283965 1.0993627,66.937238 C 1.0993627,57.588332 1.1123538,57.0277 1.3290502,57.02499 C 1.7438159,57.019805 23.204494,58.61096 23.641551,58.679305 L 24.068113,58.746009 L 24.068113,62.590374 C 24.068113,64.704781 24.028946,69.190855 23.981075,72.55943 L 23.894037,78.684113 L 23.292012,78.668243 C 22.9609,78.659512 17.935457,78.24994 12.124363,77.758082 L 12.124363,77.758081 z"
     id="path3386"
     style="fill:#000000;fill-opacity:0.31372549;stroke:none;stroke-width:0.5;stroke-miterlimit:4;stroke-dasharray:none;stroke-opacity:1" />
  <path
     d="M 34.808254,79.636591 C 28.961066,79.143461 24.132706,78.736907 24.078566,78.733138 C 23.967611,78.725408 23.976009,71.827755 24.096554,63.959552 L 24.177004,58.708448 L 34.939504,59.520934 C 40.858879,59.9678 45.923488,60.337439 46.194191,60.342351 L 46.686379,60.351284 L 46.686379,66.695552 C 46.686379,70.184906 46.64734,74.732718 46.599625,76.801806 L 46.512872,80.563784 L 45.976191,80.548483 C 45.681011,80.54007 40.655441,80.129716 34.808254,79.636588 L 34.808254,79.636591 z"
     id="path3388"
     style="fill:#000000;fill-opacity:0.31372549;stroke:none;stroke-width:0.5;stroke-miterlimit:4;stroke-dasharray:none;stroke-opacity:1" />
  <path
     d="M 57.565733,81.516278 C 51.718546,81.023031 46.861916,80.616248 46.773225,80.612317 C 46.646443,80.606699 46.629285,78.451595 46.692971,70.531733 C 46.737524,64.991342 46.785615,60.443395 46.799842,60.425184 C 46.838611,60.375546 69.191607,62.062212 69.223249,62.11716 C 69.23826,62.14322 69.229955,66.727123 69.2048,72.303608 L 69.159064,82.44267 L 68.678027,82.427882 C 68.413451,82.419747 63.412921,82.009527 57.565733,81.516279 L 57.565733,81.516278 z"
     id="path3390"
     style="fill:#000000;fill-opacity:0.31372549;stroke:none;stroke-width:0.5;stroke-miterlimit:4;stroke-dasharray:none;stroke-opacity:1" />
  <path
     d="M 69.799363,71.390361 L 69.799363,61.612075 L 71.7353,59.162962 L 73.671238,56.713857 L 73.75137,62.127182 C 73.795449,65.104517 73.839745,69.34332 73.849812,71.546746 L 73.868113,75.552973 L 71.888028,78.306124 C 70.798981,79.820351 69.883512,81.083875 69.853653,81.113954 C 69.823793,81.144028 69.799363,76.768415 69.799363,71.390359 L 69.799363,71.390361 z"
     id="path3392"
     style="fill:#000000;fill-opacity:0.47058824;stroke:none;stroke-width:0.5;stroke-miterlimit:4;stroke-dasharray:none;stroke-opacity:1" />
  <path
     d="M 74.592977,46.557965 C 74.592605,42.124446 74.557924,37.935931 74.51591,37.25015 L 74.43952,36.003275 L 76.036045,34.2314 C 76.914135,33.256868 77.716628,32.37304 77.819364,32.267337 C 77.980977,32.101061 78.006157,33.30458 78.006157,41.194119 L 78.006157,50.313089 L 76.35418,52.411303 C 75.445588,53.565327 74.677776,54.534133 74.647928,54.564213 C 74.618077,54.594287 74.593351,50.991477 74.592979,46.557963 L 74.592977,46.557965 z"
     id="path3406"
     style="fill:#000000;fill-opacity:0.47058824;stroke:none;stroke-width:0.5;stroke-miterlimit:4;stroke-dasharray:none;stroke-opacity:1" />
  <path
     d="M 74.804523,71.905871 C 74.756972,70.700267 74.71807,66.498353 74.71807,62.568286 L 74.71807,55.422708 L 76.325882,53.384167 L 77.933695,51.345619 L 77.967396,60.559499 L 78.001098,69.773379 L 76.536152,71.83177 C 75.730429,72.963886 75.030651,73.9369 74.981087,73.994024 C 74.931519,74.051149 74.852069,73.111481 74.80452,71.905874 L 74.804523,71.905871 z"
     id="path3408"
     style="fill:#000000;fill-opacity:0.47058824;stroke:none;stroke-width:0.5;stroke-miterlimit:4;stroke-dasharray:none;stroke-opacity:1" />
  <path
     d="M 78.789637,59.432849 L 78.795091,49.333818 L 80.702606,46.919202 L 82.61012,44.504585 L 82.647218,54.313846 L 82.684308,64.123098 L 80.856304,66.690337 C 79.850904,68.102312 78.973374,69.319287 78.906241,69.394723 C 78.839106,69.470158 78.786639,64.987315 78.789639,59.432848 L 78.789637,59.432849 z"
     id="path3410"
     style="fill:#000000;fill-opacity:0.47058824;stroke:none;stroke-width:0.5;stroke-miterlimit:4;stroke-dasharray:none;stroke-opacity:1" />
  <path
     d="M 12.416151,58.173279 C 6.214901,57.695853 1.0019322,57.301557 0.83177596,57.297064 L 0.52240096,57.288895 L 0.52240096,46.544911 L 0.52240096,35.800921 L 1.381776,35.884129 C 1.8544322,35.929902 7.2839635,36.348698 13.447401,36.814793 C 19.610838,37.280892 24.670015,37.675693 24.690014,37.692138 C 24.710014,37.708582 24.68439,42.52677 24.633072,48.399218 L 24.539767,59.076395 L 24.115459,59.058863 C 23.882089,59.049215 18.617401,58.650705 12.416151,58.173279 z"
     id="path2403"
     style="opacity:1;fill:#000000;fill-opacity:0.31372549;fill-rule:nonzero;stroke:none;stroke-width:0.25;stroke-miterlimit:4;stroke-dasharray:none;stroke-opacity:1" />
  <path
     d="M 40.985669,12.893505 C 34.799426,12.495303 29.707569,12.139114 29.670429,12.101975 C 29.534885,11.966428 33.798384,8.0128414 34.079231,8.0136499 C 34.70577,8.0154552 57.163419,9.5282989 57.206745,9.5716211 C 57.23254,9.5974216 56.328767,10.525691 55.198338,11.63444 C 53.351685,13.445687 53.096851,13.64868 52.688206,13.633928 C 52.438051,13.624899 47.171913,13.291708 40.98567,12.893505 L 40.985669,12.893505 z"
     id="path2405"
     style="opacity:1;fill:#000000;fill-opacity:0.19607843;fill-rule:nonzero;stroke:none;stroke-width:0.25;stroke-miterlimit:4;stroke-dasharray:none;stroke-opacity:1" />
  <path
     d="M 57.577755,61.541158 C 51.414317,61.06553 46.346047,60.671276 46.314931,60.665033 C 46.242175,60.650441 46.408054,39.465051 46.481498,39.391609 C 46.533177,39.339933 67.300641,40.887328 69.02463,41.071311 L 69.815255,41.155683 L 69.815255,51.798438 L 69.815255,62.441185 L 69.29963,62.423561 C 69.016036,62.413861 63.741192,62.016781 57.577755,61.541156 L 57.577755,61.541158 z"
     id="path2407"
     style="opacity:1;fill:#000000;fill-opacity:0.31372549;fill-rule:nonzero;stroke:none;stroke-width:0.25;stroke-miterlimit:4;stroke-dasharray:none;stroke-opacity:1" />
  <path
     d="M 69.815416,50.871235 L 69.815416,40.66943 L 71.706041,38.57822 L 73.596666,36.487009 L 73.681131,41.978685 C 73.727566,44.999106 73.771855,49.419422 73.77954,51.801609 L 73.793511,56.132859 L 72.001514,58.401609 C 71.015914,59.649422 70.120844,60.760962 70.012466,60.871699 C 69.841361,61.046527 69.815416,59.729743 69.815416,50.871231 L 69.815416,50.871235 z"
     id="path2409"
     style="opacity:1;fill:#000000;fill-opacity:0.47058824;fill-rule:nonzero;stroke:none;stroke-width:0.25;stroke-miterlimit:4;stroke-dasharray:none;stroke-opacity:1" />
  <path
     d="M 78.821295,40.176955 L 78.821295,30.73336 L 80.688697,28.668204 C 81.715752,27.532364 82.582002,26.603043 82.613682,26.603043 C 82.645362,26.603043 82.670731,30.702261 82.67003,35.712418 L 82.668765,44.821793 L 80.874376,47.090543 C 79.887456,48.338355 79.02177,49.418074 78.950642,49.489918 C 78.869832,49.571518 78.821295,46.076441 78.821295,40.176952 L 78.821295,40.176955 z"
     id="path2411"
     style="opacity:1;fill:#000000;fill-opacity:0.47058824;fill-rule:nonzero;stroke:none;stroke-width:0.25;stroke-miterlimit:4;stroke-dasharray:none;stroke-opacity:1" />
  <path
     d="M 25.3125,6.375 L 20.15625,8.25 L 19.4375,8.53125 C 19.402442,8.5457108 19.370582,8.5669502 19.34375,8.59375 C 19.31695,8.6205825 19.295711,8.6524415 19.28125,8.6875 C 19.242177,8.7533663 19.230932,8.8320779 19.25,8.90625 L 19.5,9.59375 L 21.125,14.09375 C 21.139461,14.128808 21.1607,14.160668 21.1875,14.1875 C 21.262238,14.280394 21.386469,14.317663 21.5,14.28125 L 22.9375,13.78125 C 23.080214,13.733256 23.161913,13.583473 23.125,13.4375 C 23.125565,13.427091 23.125565,13.416659 23.125,13.40625 L 22.3125,11.125 L 36.15625,16.25 L 33.875,17.28125 C 33.839942,17.295711 33.808082,17.31695 33.78125,17.34375 C 33.738963,17.396927 33.716826,17.463336 33.71875,17.53125 C 33.719598,17.574741 33.730281,17.617476 33.75,17.65625 L 34.375,19.03125 C 34.389461,19.066308 34.4107,19.098168 34.4375,19.125 C 34.498757,19.174956 34.577847,19.197553 34.65625,19.1875 C 34.689066,19.18256 34.720783,19.171988 34.75,19.15625 L 39.3125,17.0625 L 39.9375,16.78125 C 39.972558,16.766789 40.004418,16.74555 40.03125,16.71875 C 40.073537,16.665573 40.095674,16.599164 40.09375,16.53125 C 40.098868,16.50021 40.098868,16.46854 40.09375,16.4375 L 39.875,15.78125 L 38.46875,11.8125 C 38.454289,11.777442 38.43305,11.745582 38.40625,11.71875 C 38.337,11.637969 38.228869,11.601925 38.125,11.625 C 38.114591,11.624435 38.104159,11.624435 38.09375,11.625 L 36.65625,12.125 C 36.513536,12.172994 36.431837,12.322777 36.46875,12.46875 C 36.468185,12.479159 36.468185,12.489591 36.46875,12.5 L 37.125,14.34375 L 23.46875,9.28125 L 26,8.375 C 26.035058,8.3605392 26.066918,8.3392998 26.09375,8.3125 C 26.174531,8.2432503 26.210575,8.1351186 26.1875,8.03125 C 26.188065,8.020841 26.188065,8.010409 26.1875,8 L 25.6875,6.5625 C 25.639506,6.4197861 25.489723,6.3380865 25.34375,6.375 C 25.333341,6.3744347 25.322909,6.3744347 25.3125,6.375 z"
     id="path3216"
     style="fill:#ffffff;fill-opacity:1;fill-rule:evenodd;stroke:none;stroke-width:1.5;stroke-linecap:butt;stroke-linejoin:miter;stroke-miterlimit:4;stroke-dasharray:none;stroke-opacity:1" />
  <path
     d="M 20.625,9.375 L 38.875,16.125 M 22.125,13.75 L 20.5,9.25 L 25.65625,7.375 M 34.3125,18.21875 L 38.875,16.125 L 37.46875,12.15625"
     id="path3203"
     style="fill:none;fill-rule:evenodd;stroke:#000000;stroke-width:1.5;stroke-linecap:butt;stroke-linejoin:miter;stroke-miterlimit:4;stroke-dasharray:none;stroke-opacity:1" />
</svg>
