<?xml version="1.0" encoding="UTF-8" standalone="no"?>
<!-- Created with Inkscape (http://www.inkscape.org/) -->
<svg
   xmlns:dc="http://purl.org/dc/elements/1.1/"
   xmlns:cc="http://creativecommons.org/ns#"
   xmlns:rdf="http://www.w3.org/1999/02/22-rdf-syntax-ns#"
   xmlns:svg="http://www.w3.org/2000/svg"
   xmlns="http://www.w3.org/2000/svg"
   xmlns:sodipodi="http://sodipodi.sourceforge.net/DTD/sodipodi-0.dtd"
   xmlns:inkscape="http://www.inkscape.org/namespaces/inkscape"
   version="1.0"
   width="84"
   height="84"
   id="svg2"
   sodipodi:version="0.32"
   inkscape:version="0.46"
   sodipodi:docname="top-center-middle-left.svg"
   inkscape:output_extension="org.inkscape.output.svg.inkscape">
  <sodipodi:namedview
     inkscape:window-height="974"
     inkscape:window-width="1264"
     inkscape:pageshadow="2"
     inkscape:pageopacity="0.0"
     guidetolerance="10.0"
     gridtolerance="10.0"
     objecttolerance="10.0"
     borderopacity="1.0"
     bordercolor="#666666"
     pagecolor="#ffffff"
     id="base"
     showgrid="false"
     inkscape:zoom="5.6568543"
     inkscape:cx="75.324533"
     inkscape:cy="54.742527"
     inkscape:window-x="0"
     inkscape:window-y="14"
     inkscape:current-layer="svg2"
     showguides="false">
    <inkscape:grid
       type="xygrid"
       id="grid2544" />
  </sodipodi:namedview>
  <metadata
     id="metadata9">
    <rdf:RDF>
      <cc:Work
         rdf:about="">
        <dc:format>image/svg+xml</dc:format>
        <dc:type
           rdf:resource="http://purl.org/dc/dcmitype/StillImage" />
      </cc:Work>
    </rdf:RDF>
  </metadata>
  <defs
     id="defs4">
    <inkscape:perspective
       id="perspective11"
       inkscape:persp3d-origin="42 : 28 : 1"
       inkscape:vp_z="137.77406 : 148.49372 : 1"
       inkscape:vp_y="6.1230318e-14 : 1000 : 0"
       inkscape:vp_x="-49.205021 : 82.594143 : 1"
       sodipodi:type="inkscape:persp3d" />
  </defs>
  <path
     d="M 83.176828,5.43614 L 69.42136,20.442078 L 69.205598,82.341655 M 1.0608713,16.065331 L 1.0608713,76.922857 L 69.212956,82.550058 L 82.968379,63.375792 L 83.176828,5.6445389 L 19.818331,1.6846104 L 1.3093942,16.189594 L 69.461479,20.357929 L 69.337885,82.508863"
     sodipodi:nodetypes="ccccccccccc"
     style="fill:none;fill-rule:evenodd;stroke:#000000;stroke-width:1;stroke-linecap:butt;stroke-linejoin:round;stroke-miterlimit:4;stroke-dasharray:none;stroke-opacity:1"
     id="path2389" />
  <path
     style="fill:none;fill-rule:evenodd;stroke:#000000;stroke-width:1px;stroke-linecap:butt;stroke-linejoin:miter;stroke-opacity:1"
     d="M 24.230981,17.147344 L 23.982458,78.905281"
     id="path3334" />
  <path
     style="fill:none;fill-rule:evenodd;stroke:#000000;stroke-width:1px;stroke-linecap:butt;stroke-linejoin:miter;stroke-opacity:1"
     d="M 46.598041,80.52068 L 47.095087,19.011265"
     id="path3336" />
  <path
     style="fill:none;fill-rule:evenodd;stroke:#000000;stroke-width:1px;stroke-linecap:butt;stroke-linejoin:miter;stroke-opacity:1"
     d="M 69.337885,62.005725 L 1.2426144,56.911005"
     id="path3338" />
  <path
     style="fill:none;fill-rule:evenodd;stroke:#000000;stroke-width:1px;stroke-linecap:butt;stroke-linejoin:miter;stroke-opacity:1"
     d="M 1.118353,36.283606 L 69.462146,41.502587"
     id="path3340" />
  <path
     style="fill:none;fill-rule:evenodd;stroke:#000000;stroke-width:1px;stroke-linecap:butt;stroke-linejoin:miter;stroke-opacity:1"
     d="M 78.398616,10.561483 L 14.000124,6.3210616"
     id="path3348"
     sodipodi:nodetypes="cc" />
  <path
     id="path3350"
     d="M 7.8698906,11.151731 L 73.976978,15.314489"
     style="fill:none;fill-rule:evenodd;stroke:#000000;stroke-width:1px;stroke-linecap:butt;stroke-linejoin:miter;stroke-opacity:1"
     sodipodi:nodetypes="cc" />
  <path
     id="path3354"
     d="M 78.429685,69.803129 L 78.429685,10.623617"
     style="fill:none;fill-rule:evenodd;stroke:#000000;stroke-width:1px;stroke-linecap:butt;stroke-linejoin:miter;stroke-opacity:1"
     sodipodi:nodetypes="cc" />
  <path
     sodipodi:nodetypes="cc"
     id="path3358"
     d="M 73.883783,15.57854 L 74.33423,75.348295"
     style="fill:none;fill-rule:evenodd;stroke:#000000;stroke-width:1px;stroke-linecap:butt;stroke-linejoin:miter;stroke-opacity:1" />
  <path
     style="fill:none;fill-rule:evenodd;stroke:#000000;stroke-width:1px;stroke-linecap:butt;stroke-linejoin:miter;stroke-opacity:1"
     d="M 69.25,61.875 L 82.875,44.625"
     id="path3360" />
  <path
     style="fill:none;fill-rule:evenodd;stroke:#000000;stroke-width:1px;stroke-linecap:butt;stroke-linejoin:miter;stroke-opacity:1"
     d="M 69.375,41.25 L 82.875,26.25"
     id="path3362" />
  <path
     style="fill:none;fill-rule:evenodd;stroke:#000000;stroke-width:1px;stroke-linecap:butt;stroke-linejoin:miter;stroke-opacity:1"
     d="M 47.25,19 L 62.5,4.2500002"
     id="path3364" />
  <path
     style="fill:none;fill-rule:evenodd;stroke:#000000;stroke-width:1px;stroke-linecap:butt;stroke-linejoin:miter;stroke-opacity:1"
     d="M 24.375,17.5 L 39.375,2.8750002"
     id="path3366" />
  <path
     style="fill:#000000;fill-opacity:0.3137255;stroke:none;stroke-width:0.06250000000000000;stroke-miterlimit:4;stroke-dasharray:none;stroke-opacity:1"
     d="M 34.702248,59.358521 L 24.10381,58.555079 L 24.10381,48.349246 C 24.10381,38.716809 24.116715,38.143428 24.333498,38.143665 C 24.743116,38.144119 46.854251,39.8499 46.880951,39.883111 C 46.895181,39.900811 46.876795,44.477866 46.840101,50.054351 L 46.773379,60.193413 L 46.037036,60.177688 C 45.632041,60.169041 40.531388,59.800416 34.702248,59.358522 L 34.702248,59.358521 z"
     id="path3384" />
  <path
     style="fill:#000000;fill-opacity:0.3137255;stroke:none;stroke-width:0.50000000000000000;stroke-miterlimit:4;stroke-dasharray:none;stroke-opacity:1"
     d="M 12.124363,77.758081 C 6.3132689,77.266223 1.4553783,76.859927 1.3290502,76.855203 C 1.1124037,76.847103 1.0993627,76.283965 1.0993627,66.937238 C 1.0993627,57.588332 1.1123538,57.0277 1.3290502,57.02499 C 1.7438159,57.019805 23.204494,58.61096 23.641551,58.679305 L 24.068113,58.746009 L 24.068113,62.590374 C 24.068113,64.704781 24.028946,69.190855 23.981075,72.55943 L 23.894037,78.684113 L 23.292012,78.668243 C 22.9609,78.659512 17.935457,78.24994 12.124363,77.758082 L 12.124363,77.758081 z"
     id="path3386" />
  <path
     style="fill:#000000;fill-opacity:0.3137255;stroke:none;stroke-width:0.50000000000000000;stroke-miterlimit:4;stroke-dasharray:none;stroke-opacity:1"
     d="M 34.808254,79.636591 C 28.961066,79.143461 24.132706,78.736907 24.078566,78.733138 C 23.967611,78.725408 23.976009,71.827755 24.096554,63.959552 L 24.177004,58.708448 L 34.939504,59.520934 C 40.858879,59.9678 45.923488,60.337439 46.194191,60.342351 L 46.686379,60.351284 L 46.686379,66.695552 C 46.686379,70.184906 46.64734,74.732718 46.599625,76.801806 L 46.512872,80.563784 L 45.976191,80.548483 C 45.681011,80.54007 40.655441,80.129716 34.808254,79.636588 L 34.808254,79.636591 z"
     id="path3388" />
  <path
     style="fill:#000000;fill-opacity:0.3137255;stroke:none;stroke-width:0.50000000000000000;stroke-miterlimit:4;stroke-dasharray:none;stroke-opacity:1"
     d="M 57.565733,81.516278 C 51.718546,81.023031 46.861916,80.616248 46.773225,80.612317 C 46.646443,80.606699 46.629285,78.451595 46.692971,70.531733 C 46.737524,64.991342 46.785615,60.443395 46.799842,60.425184 C 46.838611,60.375546 69.191607,62.062212 69.223249,62.11716 C 69.23826,62.14322 69.229955,66.727123 69.2048,72.303608 L 69.159064,82.44267 L 68.678027,82.427882 C 68.413451,82.419747 63.412921,82.009527 57.565733,81.516279 L 57.565733,81.516278 z"
     id="path3390" />
  <path
     style="fill:#000000;fill-opacity:0.47058824;stroke:none;stroke-width:0.50000000000000000;stroke-miterlimit:4;stroke-dasharray:none;stroke-opacity:1"
     d="M 69.799363,71.390361 L 69.799363,61.612075 L 71.7353,59.162962 L 73.671238,56.713857 L 73.75137,62.127182 C 73.795449,65.104517 73.839745,69.34332 73.849812,71.546746 L 73.868113,75.552973 L 71.888028,78.306124 C 70.798981,79.820351 69.883512,81.083875 69.853653,81.113954 C 69.823793,81.144028 69.799363,76.768415 69.799363,71.390359 L 69.799363,71.390361 z"
     id="path3392" />
  <path
     style="fill:#000000;fill-opacity:0.47058824;stroke:none;stroke-width:0.50000000000000000;stroke-miterlimit:4;stroke-dasharray:none;stroke-opacity:1"
     d="M 74.592977,46.557965 C 74.592605,42.124446 74.557924,37.935931 74.51591,37.25015 L 74.43952,36.003275 L 76.036045,34.2314 C 76.914135,33.256868 77.716628,32.37304 77.819364,32.267337 C 77.980977,32.101061 78.006157,33.30458 78.006157,41.194119 L 78.006157,50.313089 L 76.35418,52.411303 C 75.445588,53.565327 74.677776,54.534133 74.647928,54.564213 C 74.618077,54.594287 74.593351,50.991477 74.592979,46.557963 L 74.592977,46.557965 z"
     id="path3406" />
  <path
     style="fill:#000000;fill-opacity:0.47058824;stroke:none;stroke-width:0.50000000000000000;stroke-miterlimit:4;stroke-dasharray:none;stroke-opacity:1"
     d="M 74.804523,71.905871 C 74.756972,70.700267 74.71807,66.498353 74.71807,62.568286 L 74.71807,55.422708 L 76.325882,53.384167 L 77.933695,51.345619 L 77.967396,60.559499 L 78.001098,69.773379 L 76.536152,71.83177 C 75.730429,72.963886 75.030651,73.9369 74.981087,73.994024 C 74.931519,74.051149 74.852069,73.111481 74.80452,71.905874 L 74.804523,71.905871 z"
     id="path3408" />
  <path
     style="fill:#000000;fill-opacity:0.47058824;stroke:none;stroke-width:0.50000000000000000;stroke-miterlimit:4;stroke-dasharray:none;stroke-opacity:1"
     d="M 78.966662,59.207147 L 78.97162,50.026209 L 80.705725,47.831104 L 82.439828,45.635998 L 82.473554,54.553508 L 82.507272,63.471009 L 80.84545,65.804863 C 79.93145,67.088477 79.133696,68.194818 79.072666,68.263396 C 79.011634,68.331973 78.963937,64.256661 78.966664,59.207146 L 78.966662,59.207147 z"
     id="path3410" />
  <path
     sodipodi:type="inkscape:offset"
     inkscape:radius="0.28811076"
     inkscape:original="M 74.875 20.8125 L 74.75 22.03125 L 76 22.1875 C 75.601683 23.084148 71.881967 32.040572 71.40625 45.3125 L 70.90625 44.25 L 69.78125 44.75 L 71.28125 48.09375 L 71.8125 49.28125 L 72.40625 48.125 L 73.9375 45.125 L 72.8125 44.5625 L 72.6875 44.8125 C 73.137309 34.530058 75.128003 28.20594 76.3125 25.125 L 76.40625 26.65625 L 77.65625 26.59375 L 77.375 22 L 77.34375 21.59375 L 77.3125 21.0625 L 76.78125 21 L 74.875 20.8125 z "
     style="fill:#ffffff;fill-opacity:1;fill-rule:evenodd;stroke:none;stroke-width:1.25510561000000000;stroke-linecap:butt;stroke-linejoin:miter;stroke-miterlimit:4;stroke-dasharray:none;stroke-opacity:1"
     id="path2411"
     d="M 74.78125,20.53125 C 74.770049,20.540851 74.759601,20.551299 74.75,20.5625 C 74.714942,20.576961 74.683082,20.5982 74.65625,20.625 C 74.625475,20.660906 74.60401,20.703836 74.59375,20.75 C 74.593185,20.760409 74.593185,20.770841 74.59375,20.78125 L 74.46875,22 C 74.464272,22.053985 74.475103,22.10814 74.5,22.15625 C 74.514461,22.191308 74.5357,22.223168 74.5625,22.25 C 74.598406,22.280775 74.641336,22.30224 74.6875,22.3125 C 74.697909,22.313065 74.708341,22.313065 74.71875,22.3125 L 75.59375,22.4375 C 74.949521,23.955383 71.797542,32.095987 71.1875,44.21875 L 71.15625,44.125 C 71.148407,44.102976 71.137914,44.081988 71.125,44.0625 C 71.05575,43.981719 70.947619,43.945675 70.84375,43.96875 C 70.821726,43.976593 70.800738,43.987086 70.78125,44 L 69.65625,44.5 C 69.645841,44.499435 69.635409,44.499435 69.625,44.5 C 69.601076,44.517495 69.579995,44.538576 69.5625,44.5625 C 69.520213,44.615677 69.498076,44.682086 69.5,44.75 C 69.500848,44.793491 69.511531,44.836226 69.53125,44.875 L 71.03125,48.21875 L 71.5625,49.40625 C 71.576961,49.441308 71.5982,49.473168 71.625,49.5 C 71.678177,49.542287 71.744586,49.564424 71.8125,49.5625 C 71.880414,49.564424 71.946823,49.542287 72,49.5 C 72.023924,49.482505 72.045005,49.461424 72.0625,49.4375 C 72.063065,49.427091 72.063065,49.416659 72.0625,49.40625 L 72.65625,48.25 L 74.1875,45.25 C 74.200414,45.230512 74.210907,45.209524 74.21875,45.1875 C 74.241825,45.083631 74.205781,44.9755 74.125,44.90625 C 74.105512,44.893336 74.084524,44.882843 74.0625,44.875 L 73,44.34375 C 73.430267,35.578525 74.970272,29.911497 76.125,26.59375 L 76.125,26.6875 C 76.129821,26.744642 76.151582,26.799046 76.1875,26.84375 C 76.214332,26.87055 76.246192,26.891789 76.28125,26.90625 C 76.320024,26.925969 76.362759,26.936652 76.40625,26.9375 L 77.65625,26.875 C 77.724164,26.876924 77.790573,26.854787 77.84375,26.8125 C 77.914054,26.749547 77.949075,26.656158 77.9375,26.5625 L 77.65625,21.96875 L 77.625,21.5625 L 77.59375,21.03125 C 77.588929,20.974108 77.567168,20.919704 77.53125,20.875 C 77.513755,20.851076 77.492674,20.829995 77.46875,20.8125 C 77.429976,20.792781 77.387241,20.782098 77.34375,20.78125 L 76.8125,20.71875 L 74.90625,20.53125 C 74.865085,20.522103 74.822415,20.522103 74.78125,20.53125 L 74.78125,20.53125 z" />
  <path
     style="fill:none;fill-rule:evenodd;stroke:#000000;stroke-width:1.25510561;stroke-linecap:butt;stroke-linejoin:miter;stroke-miterlimit:4;stroke-dasharray:none;stroke-opacity:1"
     id="path3436"
     d="M 71.849455,47.721721 C 71.840716,32.529996 76.794669,21.748935 76.794669,21.748935 M 77.025922,26.622669 L 76.729052,21.623098 L 74.804628,21.421276 M 70.343273,44.493589 L 71.85508,47.828897 L 73.371367,44.849567" />
</svg>
